<svg  class="card-img-top" version="1.1" xmlns="http://www.w3.org/2000/svg" width="55" height="55" viewBox="0 0 640 640">
	<path d="M535.232 404.512c-26.976 43.616-113.12 75.552-215.232 75.552s-188.256-31.936-215.264-75.552c-5.696-9.28-8.736-4.32-8.736 0.224 0 4.608 0 64.064 0 64.064 0 62.080 100.288 126.4 224 126.4s224-64.32 224-126.368c0 0 0-59.456 0-64.064 0-4.576-3.072-9.536-8.768-0.256zM535.584 240.8c-26.56 38.56-113.024 66.88-215.584 66.88s-189.056-28.32-215.616-66.88c-5.472-7.936-8.384-3.616-8.384-0.064 0 3.616 0 75.424 0 75.424 0 56.384 100.288 102.048 224 102.048s224-45.696 224-102.048c0 0 0-71.808 0-75.424 0-3.552-2.944-7.872-8.416 0.064zM320 32c-123.712 0-224 37.76-224 84.256v40.32c0 49.312 100.288 89.312 224 89.312s224-40 224-89.312v-40.32c0-46.496-100.288-84.256-224-84.256z" fill="#2196F3"></path>
</svg>
