<svg xmlns="http://www.w3.org/2000/svg" width="100%" height="auto" viewBox="0 0 588 534">
  <g id="Group_3248" data-name="Group 3248" transform="translate(-364 -4127.578)">
    <rect id="Rectangle_441" data-name="Rectangle 441" width="588" height="534" transform="translate(364 4127.578)" fill="#FFF"></rect>
    <g id="Group_2177" data-name="Group 2177" transform="translate(-876.736 3562.157)">
      <g id="Group_188" data-name="Group 188" transform="translate(1280.736 672.421)">
        <path id="Path_5506" data-name="Path 5506" d="M1738.223,806.555c-.628-34.511-.425-34.129-1.523-68.627-2.348-73.815-91.61-57.991-91.659-57.994-37.036-2.5-52.77-7.379-106.091-5.3-18.576.725-39.635,5.2-61.082,10.439-40.113,9.813-81.585,22.368-110.7,18.3-44.675-6.247-89.833,6.252-109.974,75.734s-22.758,148.652-22.758,148.652,25.023,6.3,53.918,13.6c38.005,9.6,82.7,20.939,85.936,21.938,2.939.912,151.556-5.037,294.893-11.017a503.749,503.749,0,0,0,52.319-35.394c6.341-5.26,12.627-10.648,18.783-16.194Q1739.069,853.626,1738.223,806.555Z" transform="translate(-1232.287 -674.131)" fill="#f8f8f8"></path>
        <g id="Group_173" data-name="Group 173" transform="translate(0.049 12.518)">
          <g id="Group_167" data-name="Group 167">
            <path id="Path_485" data-name="Path 485" d="M1530.646,692V864.437l-74.61,25.719-2.97,1.022L1379.6,916.493l-2.97,1.022-78.918,27.2c-35.516-7.2-66.272-13.411-66.272-13.411a595,595,0,0,1,9.624-77.66c.17-.875-.178-102.342,0-103.223.176-3.645,190.336-40.225,212-43.569.987-.154,1.975-.308,2.97-.469C1479.842,702.584,1505.459,696.935,1530.646,692Z" transform="translate(-1231.438 -691.995)" fill="#fff"></path>
          </g>
          <g id="Group_168" data-name="Group 168" transform="translate(30.682 30.633)">
            <path id="Path_486" data-name="Path 486" d="M1543.749,735.71v2.539l-74.61,14.6-2.97.584L1392.7,767.823l-2.97.584-83.224,16.287-2.971.584-28.313,5.538c.385-.937.787-1.854,1.181-2.766l27.133-5.31,2.971-.579,83.224-16.294,2.97-.584,73.467-14.377,2.97-.584Z" transform="translate(-1275.223 -735.71)" fill="#f8f8f8"></path>
          </g>
          <g id="Group_169" data-name="Group 169" transform="translate(9.623 102.434)">
            <path id="Path_487" data-name="Path 487" d="M1534.755,838.175v2.531l-74.611,14.606-2.97.584-73.467,14.383-2.97.579-83.224,16.294-2.971.579L1245.17,897.4c.171-.875.334-1.755.513-2.637l48.86-9.56,2.97-.584,83.223-16.294,2.971-.579,73.467-14.384,2.97-.578Z" transform="translate(-1245.17 -838.175)" fill="#f8f8f8"></path>
          </g>
          <g id="Group_170" data-name="Group 170" transform="translate(221.628 14.395)">
            <path id="Path_488" data-name="Path 488" d="M1550.684,712.538V929.123h-2.97V713.007Q1549.189,712.781,1550.684,712.538Z" transform="translate(-1547.714 -712.538)" fill="#f8f8f8"></path>
          </g>
          <g id="Group_171" data-name="Group 171" transform="translate(145.19 16.737)">
            <path id="Path_489" data-name="Path 489" d="M1441.6,716V936.144h-2.97V715.879C1439.62,715.91,1440.615,715.947,1441.6,716Z" transform="translate(-1438.633 -715.879)" fill="#f8f8f8"></path>
          </g>
          <g id="Group_172" data-name="Group 172" transform="translate(58.996 41.419)">
            <path id="Path_490" data-name="Path 490" d="M1318.6,751.1V959.526h-2.97V753.708C1316.6,752.809,1317.6,751.947,1318.6,751.1Z" transform="translate(-1315.629 -751.103)" fill="#f8f8f8"></path>
          </g>
        </g>
        <path id="Path_5507" data-name="Path 5507" d="M1737.124,965.494,1518.572,914.3l-287.164,83.535c-.485.141,3.6,13.259,4.627,16.47,18.021,7.393,36.216,14.323,54.158,21.932l-3.8-1.636c10.8,4.537,21.592,9.149,32.682,12.918a181.627,181.627,0,0,0,27.614,6.937c17.631,1.715,35.388.911,53.057,2.115,15.68,1.069,31.229,2.9,46.683,5.282q12.686-.1,25.372-.341c28.932-.589,57.878-1.964,86.653-5.137,29.037-4.838,57.683-12.007,85.268-22.429,26.429-12.889,51.2-29.07,74.765-46.836,6.343-5.188,12.627-10.506,18.784-15.978Q1737.194,968.315,1737.124,965.494Z" transform="translate(-1231.368 -741.99)" fill="#f0f0f0"></path>
        <g id="Group_182" data-name="Group 182" transform="translate(287.67 6.537)">
          <path id="Path_553" data-name="Path 553" d="M1736.573,838.819a.689.689,0,0,1-.742-.617h0V684.077a.756.756,0,0,1,1.486,0V838.2A.689.689,0,0,1,1736.573,838.819Z" transform="translate(-1735.831 -683.46)" fill="#f0f0f0"></path>
        </g>
        <g id="Group_183" data-name="Group 183" transform="translate(92.014 244.34)">
          <path id="Path_5508" data-name="Path 5508" d="M1604.051,1091.3l-241.113-74.213-.261.579,239.462,73.7Z" transform="translate(-1362.677 -1017.09)" fill="#fff"></path>
        </g>
        <g id="Group_184" data-name="Group 184" transform="translate(106.908 221.892)">
          <path id="Path_5509" data-name="Path 5509" d="M1751.467,1069.387,1464.33,985.056l-.245.584,286.081,84.016C1750.6,1069.567,1751.033,1069.475,1751.467,1069.387Z" transform="translate(-1464.085 -985.056)" fill="#fff"></path>
        </g>
        <g id="Group_185" data-name="Group 185" transform="translate(157.805 204.134)">
          <path id="Path_5510" data-name="Path 5510" d="M1864.119,1037.758l-288.36-78.044-.23.584,287.7,77.862C1863.522,1038.025,1863.822,1037.893,1864.119,1037.758Z" transform="translate(-1575.529 -959.714)" fill="#fff"></path>
        </g>
        <g id="Group_186" data-name="Group 186" transform="translate(198.358 188.24)">
          <path id="Path_5511" data-name="Path 5511" d="M1953.14,1001.089l-273.106-62.526-.193.6,272.51,62.39C1952.614,1001.4,1952.878,1001.244,1953.14,1001.089Z" transform="translate(-1679.842 -938.563)" fill="#fff"></path>
        </g>
        <g id="Group_187" data-name="Group 187" transform="translate(15.488 262.58)">
          <path id="Path_5512" data-name="Path 5512" d="M1391.819,1093.733l-138.047-50.613-.3.567,136.229,49.945C1390.406,1093.666,1391.112,1093.7,1391.819,1093.733Z" transform="translate(-1253.47 -1043.12)" fill="#fff"></path>
        </g>
      </g>
      <path id="Path_5513" data-name="Path 5513" d="M1677.97,1033.856c-3.976-1.6-8.868-2.11-13.38-2.72a548.49,548.49,0,0,0-134.284-1.388q-16.746,1.906-33.076,4.859-8.151,1.476-16.16,3.212c-5.06,1.1-11.052,2.561-16.2.6-2.227-.85-4.082-2.41-3.485-4.076a2.608,2.608,0,0,1,.338-.623.868.868,0,0,1-.345-.71,205.983,205.983,0,0,0-24.958,7.355c-8.619,3.083-18.181,6.4-23.5,11.8-4.564,4.631-5.52,10.862.559,15.349,5.391,3.979,14.21,5.464,22.076,6.22,11.468,1.1,23.246,1.326,34.788,1.41,24.569.178,49.025-1.131,73.331-2.84,23.723-1.669,47.619-3.249,71.049-5.974,11.437-1.331,22.768-3.015,33.763-5.316,8.4-1.758,16.69-4.031,23.509-7.556,6.221-3.215,11.251-7.788,11.4-13.027C1683.472,1037.737,1681.7,1035.355,1677.97,1033.856Z" transform="translate(-61.803 -105.088)" fill="#fff"></path>
      <path id="Path_5514" data-name="Path 5514" d="M1904.4,963.679c-2.915-1.9-6.609-2.645-10.006-3.483a293.377,293.377,0,0,0-102.326-6.669q-12.914,1.439-25.588,4.037-6.325,1.3-12.563,2.888c-3.94,1-8.618,2.373-12.4.03-1.636-1.014-2.936-2.789-2.357-4.584a3.621,3.621,0,0,1,.568-1.069,74.391,74.391,0,0,1,14.581-2.328,57.772,57.772,0,0,1,12.3.656.247.247,0,1,0,.051-.49,63.181,63.181,0,0,0-22.44.641.228.228,0,0,0-.163-.275,4.213,4.213,0,0,0-4.675,1.376,125.953,125.953,0,0,0-19.706,7.107c-6.8,3.035-14.34,6.286-18.8,11.98-3.823,4.881-5.012,11.648-.706,16.781,3.819,4.553,10.436,6.513,16.38,7.639a211.6,211.6,0,0,0,26.432,2.875c18.727,1.138,37.478.646,56.145-.287,18.219-.912,36.562-1.72,54.635-3.8a212.408,212.408,0,0,0,26.146-4.509c6.535-1.6,13.028-3.762,18.49-7.349,4.983-3.273,9.156-8.073,9.66-13.789A7.67,7.67,0,0,0,1904.4,963.679Zm-160.769-10.257q-1.643.337-3.271.739A3.575,3.575,0,0,1,1743.634,953.422Z" transform="translate(-148.058 -82.778)" fill="#fff"></path>
      <g id="Group_2163" data-name="Group 2163" transform="translate(1531.511 707.535)">
        <path id="Path_5515" data-name="Path 5515" d="M1856.135,850.654l-.674,11.407-.021.375-.824,14.009-.024.375-.793,13.453-.021.372-.823,13.964-.025.375-1.224,20.79-23.018,12.715-.347.193-55.625,1.941,2.2-87.458Z" transform="translate(-1702.099 -760.063)" fill="#fff7f2"></path>
        <path id="Path_5516" data-name="Path 5516" d="M1855.692,854.262q-.468,12.209-.931,24.413-.825,21.7-1.653,43.4-.333,8.718-.663,17.443l-.347.193q.8-21.019,1.6-42.037l1.589-41.723c-.044.185-.089.37-.133.556a.171.171,0,0,1-.333-.081q.268-1.1.535-2.2C1855.4,854.044,1855.7,854.068,1855.692,854.262Z" transform="translate(-1725.854 -761.095)" fill="#1f2144"></path>
        <g id="Group_2154" data-name="Group 2154" transform="translate(127.688 101.998)">
          <path id="Path_5517" data-name="Path 5517" d="M1854.159,938.064l.04.234c0,.039,0,.076,0,.114l3.778-1.661q9.69-4.26,19.381-8.517l.024-.376Z" transform="translate(-1854.159 -885.165)" fill="#1f2144"></path>
          <path id="Path_5518" data-name="Path 5518" d="M1855.027,917.627c-.008.128-.02.256-.035.382l4.861-2.136q9.293-4.084,18.583-8.17l.021-.373Z" transform="translate(-1854.408 -879.022)" fill="#1f2144"></path>
          <path id="Path_5519" data-name="Path 5519" d="M1855.657,897.988c.008.078.022.153.029.232,0,.04,0,.08,0,.12l6.153-2.7q8.8-3.864,17.591-7.731l.024-.376Z" transform="translate(-1854.607 -873.096)" fill="#1f2144"></path>
          <path id="Path_5520" data-name="Path 5520" d="M1856.251,877.573c0,.011,0,.022,0,.034.009.11,0,.219.007.328l7.868-3.457q8.157-3.582,16.31-7.168l.02-.376Z" transform="translate(-1854.785 -866.933)" fill="#1f2144"></path>
        </g>
        <g id="Group_2155" data-name="Group 2155" transform="translate(0 25.028)">
          <path id="Path_5521" data-name="Path 5521" d="M1841.2,836.613c-.01-.135-.024-.269-.042-.4-.014-.1-.031-.193-.048-.288a.194.194,0,0,0-.192-.143c-25.339.486-76.238,2.551-81.7,3.036-5.3.471-85.072,13.974-85.225,14.02a.5.5,0,0,0-.156.079l-.123,0a83.584,83.584,0,0,0-1.767,9.48c44.879-1,89.041-1.98,112.572-2.5a.68.68,0,0,0,.522-.011h.008v0c1.32-.473,40.992-11.78,55.973-17.153a.215.215,0,0,0,.134-.244C1840.8,840.683,1841.353,838.5,1841.2,836.613Z" transform="translate(-1671.941 -780.641)" fill="#e6d6cf"></path>
          <path id="Path_5522" data-name="Path 5522" d="M1841.924,836.8c-.01-.135-.024-.269-.041-.4q-16.7,4.505-33.42,8.923c-7.11,1.888-15.531,3.853-22.669,5.715,0-.028.007-.056.01-.084-10.232.267-26.462.617-35.97.837q-26.585.624-53.183,1.047-11.13.186-22.258.324c0,.112-.012.246-.021.4q26.06-.336,52.114-.867c17.215-.345,41.415-.865,59.106-1.343-.058,2.865-.137,5.731-.254,8.6-.01.254.385.247.4-.006.115-2.845.194-5.691.252-8.539,16.725-4.369,34.728-8.9,51.4-13.38Q1839.57,837.433,1841.924,836.8Z" transform="translate(-1672.668 -780.825)" fill="#1f2144"></path>
          <path id="Path_5523" data-name="Path 5523" d="M1773.526,830.98c-.021-.046-.054-.073-.085-.072-.257,0-.542,0-.852-.01-6.2-.053-21.648-.1-24.445.081-.038-5.192-1.1-25.808-1.25-29.983,0-.123-.071-.247-.206-.234-7.413.714-22.6,2.729-22.591,2.987.885,13.689,1.612,17.741,1.584,33.607a.236.236,0,0,0,.053.157c0,.051,0,.106-.006.158a.2.2,0,0,0,.153.185c1.541.255,28.3.152,33.354.011.174,0,.324-.007.443-.011a3.172,3.172,0,0,0,.364-.025c.621-.121,11.747-4.709,13.457-5.489C1773.654,832.274,1773.682,831.26,1773.526,830.98Z" transform="translate(-1687.549 -770.16)" fill="#1f2144"></path>
          <path id="Path_5524" data-name="Path 5524" d="M1852.835,839.24c-1.71.781-19.736,4.418-20.358,4.539-.012,0-.083,0-.209,0-.087,0-.206,0-.345,0-3.385-.032-21.155-.251-22.549-.484a8.453,8.453,0,0,1,.012-1.477c.007-.13.011-.245.012-.325.043-.013.118-.027.224-.051h0c2.307-.476,19.024-3.193,23.063-3.722,5.749-.066,19.83.088,20.088.091.031,0,.064.025.085.072a.207.207,0,0,1,.022.05,1.3,1.3,0,0,1,.073.39C1852.987,838.709,1852.941,839.193,1852.835,839.24Z" transform="translate(-1713.06 -781.214)" fill="#1f2144"></path>
          <path id="Path_5525" data-name="Path 5525" d="M1746.61,802.162a.165.165,0,0,0-.185-.179.159.159,0,0,0-.148-.046c-6.75,1.011-13.317,1.5-19.965,3.045a.163.163,0,0,0-.133.182.184.184,0,0,0-.046.137q.812,15.107,1.6,30.21a.2.2,0,0,0,.256.181c.925-.159,1.845-.322,2.769-.5q7.74-1.435,15.352-3.493l.514-.137a6.33,6.33,0,0,0,1.29-.472C1747.533,820.17,1747.126,812.634,1746.61,802.162Z" transform="translate(-1688.159 -770.511)" fill="#fff"></path>
          <path id="Path_5526" data-name="Path 5526" d="M1760.927,849.45a3.849,3.849,0,0,1,.048,1.277c-.118,0-.269.009-.443.011a3.7,3.7,0,0,0,.015-1.057c-.3-.579-2.092-.4-2.619-.423l-2.161-.1c-3.009-.136-6.02-.293-9.027-.4-3.06-.111-6.109.1-9.168.13-2.987.029-5.969-.1-8.943-.361-.25-.023-.268-.418-.013-.4,6.694.589,13.364.013,20.064.313q5.007.229,10.019.454a5.166,5.166,0,0,1,1.861.125q6.594-2.795,13.327-5.255c.309,0,.594.007.851.01.032,0,.065.026.085.072q-7.047,2.55-13.948,5.471A.621.621,0,0,1,1760.927,849.45Z" transform="translate(-1688.847 -783.031)" fill="#545b94"></path>
          <path id="Path_5527" data-name="Path 5527" d="M1814.783,757.273s0-.008,0-.011a.179.179,0,0,0-.121-.16.048.048,0,0,0-.024,0,.279.279,0,0,0-.055-.006h-.012c-15.187,1.775-30.725,3.094-45.874,5.193-.131.017-.261.033-.391.054l-1.4.193a.179.179,0,0,0-.144.109.183.183,0,0,0-.072.151c-.3,13.592-.1,27.8-.161,41.4a.2.2,0,0,0,.208.254l1.4-.193c.13-.02.265-.037.4-.054q22.718-3.153,45.495-5.808a.2.2,0,0,0,.046-.382c.06-.027.119-.053.178-.075q.094-20.326.531-40.649Z" transform="translate(-1700.244 -757.092)" fill="#1f2144"></path>
          <path id="Path_5528" data-name="Path 5528" d="M1801.875,783.629s-.005-.008-.005-.012V783.6a.18.18,0,0,0-.132-.154s-.016,0-.024-.007a.24.24,0,0,0-.055,0s0,0-.008,0c-2.117.248-2.345.173-5.71.639a.164.164,0,0,0-.138.111.177.177,0,0,0-.067.149q.388,20.121,1.144,40.249a.2.2,0,0,0,.218.25c.324-.043.614-.084.879-.125.138-.017.272-.037.394-.057a36.44,36.44,0,0,1,4.437-.455c.209-.011.191-.3.031-.373.058-.026.117-.052.175-.073Q1802.266,803.686,1801.875,783.629Z" transform="translate(-1708.987 -764.975)" fill="#1f2144"></path>
          <path id="Path_5529" data-name="Path 5529" d="M1808.387,839.051c-2.485.017-6.241.2-8.715.465a17.931,17.931,0,0,0-5.858,2.135.171.171,0,0,0-.027.294.167.167,0,0,0,.127.085c.915.146,4.891.311,5.975.406a3.717,3.717,0,0,0,2.353-.25,60.818,60.818,0,0,0,6.3-2.8A.2.2,0,0,0,1808.387,839.051Z" transform="translate(-1708.384 -781.619)" fill="#1f2144"></path>
          <path id="Path_5530" data-name="Path 5530" d="M1769.295,767.862c-.266,12.649-.047,25.915-.079,38.555-.131.017-.266.034-.4.054.041-13.763-.148-28.147.165-41.915.13-.021.261-.037.391-.054C1769.345,765.634,1769.318,766.756,1769.295,767.862Z" transform="translate(-1700.927 -759.31)" fill="#545b94"></path>
          <path id="Path_5531" data-name="Path 5531" d="M1798.118,796.39c.015,1.116.034,2.224.057,3.315q.294,14.413.792,28.822c-.122.02-.256.041-.394.057q-.549-16.066-.844-32.141C1797.858,796.423,1797.988,796.407,1798.118,796.39Z" transform="translate(-1709.584 -768.852)" fill="#545b94"></path>
          <path id="Path_5532" data-name="Path 5532" d="M1814.781,759.39a.159.159,0,0,0-.1-.14.047.047,0,0,0-.02,0c-.02,0-.036,0-.047,0h-.012c-13.077,1.529-28.887,3.015-41.93,4.824-.114.012-.224.028-.339.043-.4.057-.8.111-1.2.169a.143.143,0,0,0-.123.091.164.164,0,0,0-.062.133c-.257,11.7-.06,26.9-.11,38.607a.172.172,0,0,0,.182.219c.4-.058.8-.111,1.205-.169l.339-.047c7.091-.984,14.887-2.052,22.63-3.07,6.178-.809,12.323-1.586,18.039-2.26.295-.038.591-.072.886-.106a.176.176,0,0,0,.04-.33c.051-.021.1-.047.152-.064.052-11.667.218-26.208.48-37.875V759.4S1814.781,759.394,1814.781,759.39Z" transform="translate(-1701.527 -757.736)" fill="#fff"></path>
          <path id="Path_5533" data-name="Path 5533" d="M1823.478,773.564c-2.972.46-14.017,1.7-17.724,2.111a.217.217,0,0,0-.191.2q-.092,7.218-.177,14.431c-.058,4.673-.141,9.351.133,14.02,6.178-.809,12.323-1.586,18.04-2.26l-.068-13.049c-.027-5.078-.221-10.2.192-15.266A.2.2,0,0,0,1823.478,773.564Z" transform="translate(-1711.858 -762.021)" fill="#a1a3b5"></path>
          <path id="Path_5534" data-name="Path 5534" d="M1790.6,781.11c-2.122.329-10.009,1.217-12.655,1.507a.154.154,0,0,0-.136.146q-.066,5.154-.127,10.3c-.042,3.337-.1,6.677.1,10.011,4.411-.578,8.8-1.132,12.88-1.614l-.048-9.317c-.019-3.626-.158-7.281.136-10.9A.141.141,0,0,0,1790.6,781.11Z" transform="translate(-1703.573 -764.279)" fill="#a1a3b5"></path>
          <path id="Path_5535" data-name="Path 5535" d="M1738.07,810.661c-1.148.178-5.412.658-6.843.815a.083.083,0,0,0-.074.079q-.036,2.786-.068,5.572c-.022,1.8-.054,3.61.051,5.413,2.385-.313,4.758-.612,6.965-.872l-.026-5.038c-.01-1.961-.085-3.937.075-5.895A.078.078,0,0,0,1738.07,810.661Z" transform="translate(-1689.634 -773.123)" fill="#a1a3b5"></path>
          <path id="Path_5536" data-name="Path 5536" d="M1832.229,842.833c.024.348.044.7.057,1.043-.088,0-.206,0-.345,0a5.984,5.984,0,0,0-.083-.662c-.16-.846-.661-.8-1.391-.839-.575-.035-1.154-.062-1.733-.086-2.18-.086-4.361-.105-6.547-.108-4.26-.014-8.529.025-12.783-.267.007-.13.011-.245.012-.325.043-.013.118-.027.224-.051h0c4.749.309,9.508.219,14.263.254,2.5.02,5.011.071,7.507.249a1.4,1.4,0,0,1,.582.114q10.492-1.886,20.907-4.126a1.294,1.294,0,0,1,.073.39q-10.355,2.225-20.781,4.1A3.151,3.151,0,0,1,1832.229,842.833Z" transform="translate(-1713.078 -781.312)" fill="#545b94"></path>
        </g>
        <g id="Group_2158" data-name="Group 2158" transform="translate(38.221)">
          <path id="Path_5537" data-name="Path 5537" d="M1928.515,774.588c1.544,1.982,4.235,2.038,6.555,2.008a16.406,16.406,0,0,0,3.853-.624q.192-1.351.384-2.7c.558-3.93,1.242-7.88,1.617-11.818.3-3.129.242-6.3-.991-9.009-.105-.231-.459-.041-.353.191a11.283,11.283,0,0,1,.646,1.854,16.32,16.32,0,0,1-6.475,3.26,3.888,3.888,0,0,0-1.993,1.1c-.745.875-2.368,1.26-2.5,2.326-.509,4.2-.475,8.755-1.3,12.926A1.954,1.954,0,0,1,1928.515,774.588Z" transform="translate(-1786.779 -730.642)" fill="#eb8773"></path>
          <path id="Path_5538" data-name="Path 5538" d="M1784.61,967.836c-4.98,6.829-9.122,12.509-11.488,15.817a28.143,28.143,0,0,1-7.182-.666c-2.452-.552-4.731-1.8-7.2-2.209-.578-.1-1.57-.247-1.76.535-.164.678.61,1.19,1.069,1.509a74.83,74.83,0,0,0,6.828,3.911c1.236.68,2.46,1.387,3.627,2.184a18.387,18.387,0,0,0,2.914,1.941c2.09.9,3.779-.336,4.581-2.057.416-.893.5-2.071,1.508-3.023,5.283-4.6,9.954-8.431,13.993-11.786A12.166,12.166,0,0,1,1784.61,967.836Z" transform="translate(-1735.603 -795.131)" fill="#eb8773"></path>
          <path id="Path_5539" data-name="Path 5539" d="M1757.457,984.706a2.878,2.878,0,0,0-.578,1.5c-.01.08-.014.159-.022.235a.206.206,0,0,0-.052.117c-.217,2.073,2.994,3.6,4.49,4.313a41.026,41.026,0,0,1,7.285,4.1c1.5,1.133,3.671,3.522,5.747,2.109.012-.006.024-.019.039-.028,1.852-1.3,2.566-4.093,3.131-6.132a.192.192,0,0,0-.216-.242,5.357,5.357,0,0,1-1.758-.654,2.551,2.551,0,0,1-.941-1.9,2.025,2.025,0,0,0-1.081-1.729,1.659,1.659,0,0,0-1.821.381c-.2.2-.356.393-.513.565a1.789,1.789,0,0,1-.328.282,1.262,1.262,0,0,1-.816.194.526.526,0,0,1-.073,0c-.126-.012-.254-.033-.383-.054a13.348,13.348,0,0,1-1.334-.4c-.05-.017-.1-.028-.147-.045l-.316-.092-8.186-2.448C1758.912,984.578,1758.021,984.052,1757.457,984.706Z" transform="translate(-1735.556 -800.084)" fill="#f5e4d5"></path>
          <path id="Path_5540" data-name="Path 5540" d="M1756.859,987.223a.188.188,0,0,0-.053.116c-.216,2.072,3,3.6,4.49,4.313a41.2,41.2,0,0,1,7.285,4.1c1.506,1.133,3.672,3.521,5.745,2.109a.328.328,0,0,0,.042-.03c-2.967-2.11-5.88-4.485-9.154-6.114-1.6-.795-3.266-1.467-4.83-2.337-1.24-.693-2.316-1.632-3.5-2.4C1756.87,987.065,1756.864,987.146,1756.859,987.223Z" transform="translate(-1735.556 -800.862)" fill="#c2a891"></path>
          <g id="Group_2156" data-name="Group 2156" transform="translate(32.215 187.142)">
            <path id="Path_5541" data-name="Path 5541" d="M1776.837,988.89a3.144,3.144,0,0,1,.639,1.655.215.215,0,0,0,.43,0,3.661,3.661,0,0,0-.741-1.943A1.793,1.793,0,0,1,1776.837,988.89Z" transform="translate(-1773.768 -988.489)" fill="#1f2144"></path>
            <path id="Path_5542" data-name="Path 5542" d="M1775.023,989.2a4.628,4.628,0,0,1,.105,1.391c0,.006,0,.009,0,.016a.632.632,0,0,1,0,.064.217.217,0,0,0,.433,0,5.088,5.088,0,0,0-.079-1.413.546.546,0,0,1-.073,0C1775.28,989.247,1775.151,989.226,1775.023,989.2Z" transform="translate(-1773.225 -988.667)" fill="#1f2144"></path>
            <path id="Path_5543" data-name="Path 5543" d="M1772.458,988.438a7.317,7.317,0,0,1,.11,1.491.217.217,0,0,0,.433,0,8.5,8.5,0,0,0-.079-1.355c-.05-.017-.1-.028-.148-.045Z" transform="translate(-1772.458 -988.438)" fill="#1f2144"></path>
          </g>
          <path id="Path_5544" data-name="Path 5544" d="M1890.449,852.472c-.081-1.741-.243-3.482-.5-5.207-.139-.951-.278-1.982-1.272-2.4-1.227-.512-2.988-.194-4.267-.105a39.194,39.194,0,0,0-13.484,3.409.183.183,0,0,0-.287.116l0,.013c-.073.034-.147.064-.22.1-.2.095-.06.365.133.354a23.537,23.537,0,0,1-5.87,11.876,48.242,48.242,0,0,1-11.1,8.235c-7.654,4.451-15.9,7.888-23.2,12.922a28.037,28.037,0,0,0-3.813,2.265c-2.153,1.556-3.679,3.64-5.466,5.566-1.753,1.89-4.072,3.079-5.855,4.921-1.763,1.82-2.388,4.265-3.5,6.475-2.168,4.33-7.079,6.166-9.539,10.264-1.307,2.179-1.934,4.671-2.994,6.963a15.776,15.776,0,0,1-4.5,5.5,17.777,17.777,0,0,0-1.559,1.289,14.214,14.214,0,0,0-3.464,3.82c-1.453,2.592-.989,5.657-1.749,8.442-.765,1.169-2.492,3.257-2.207,3.568a31.687,31.687,0,0,0,2.76,2.62c1.159.889,1.373,1.361,2.532,2.251a.2.2,0,0,0,.309-.051c1.394-2.427,4.393-4,6.9-5.259a14.816,14.816,0,0,0,3.269-1.678,7.758,7.758,0,0,0,1.73-2.877c1.163-2.53,3.968-3.4,5.678-5.5,1.837-2.257,3.353-4.754,5.219-7,1.931-2.324,3.989-4.538,6.042-6.752a73.737,73.737,0,0,1,6.083-6.054c2.276-1.942,2.854-5.75,5.556-7.02a62.022,62.022,0,0,0,7.692-3.875c2.389-1.558,6.3-1.274,8.248-3.347,2.828-1.224,5.645-2.479,8.372-3.885a64.518,64.518,0,0,0,6.623-4.356,28.2,28.2,0,0,1,7.167-3.336c4.365-1.437,8.934-2.454,12.78-5.093a14.148,14.148,0,0,0,4.067-4.112c1.289-2.071,1.629-4.455,2-6.822l0-.019a41.633,41.633,0,0,0,1.2-6.094A54.5,54.5,0,0,0,1890.449,852.472Z" transform="translate(-1744.209 -758.246)" fill="#e0a377"></path>
          <path id="Path_5545" data-name="Path 5545" d="M1756.955,943.2c-6.482,5.422-11.873,9.934-14.968,12.573a28.138,28.138,0,0,1-6.808-2.382c-2.247-1.127-4.157-2.888-6.457-3.884-.538-.233-1.464-.619-1.837.094-.324.618.3,1.3.673,1.723a74.73,74.73,0,0,0,5.681,5.445c1.036.958,2.053,1.94,2.992,2.995a18.431,18.431,0,0,0,2.36,2.588c1.81,1.38,3.747.586,4.942-.89.619-.766.985-1.889,2.194-2.569,6.237-3.186,11.7-5.776,16.425-8.056A12.173,12.173,0,0,1,1756.955,943.2Z" transform="translate(-1726.578 -787.76)" fill="#eb8773"></path>
          <path id="Path_5546" data-name="Path 5546" d="M1727.681,950.287a2.886,2.886,0,0,0-.924,1.318c-.029.075-.052.151-.078.224a.213.213,0,0,0-.078.1c-.71,1.96,2.034,4.22,3.315,5.27a41.1,41.1,0,0,1,6.078,5.741c1.186,1.463,2.712,4.3,5.066,3.436.013,0,.028-.013.045-.018,2.111-.811,3.478-3.352,4.52-5.194a.193.193,0,0,0-.152-.287,5.335,5.335,0,0,1-1.547-1.059,2.553,2.553,0,0,1-.454-2.071,2.025,2.025,0,0,0-.631-1.94,1.658,1.658,0,0,0-1.858-.07c-.241.143-.441.3-.635.424a1.737,1.737,0,0,1-.387.2,1.267,1.267,0,0,1-.838-.009.5.5,0,0,1-.07-.022c-.119-.042-.238-.093-.358-.145a13.352,13.352,0,0,1-1.2-.71c-.043-.029-.089-.051-.132-.08l-.285-.166-7.351-4.353C1729.124,950.515,1728.386,949.789,1727.681,950.287Z" transform="translate(-1726.485 -789.829)" fill="#f5e4d5"></path>
          <path id="Path_5547" data-name="Path 5547" d="M1726.68,952.466a.19.19,0,0,0-.08.1c-.71,1.958,2.037,4.219,3.315,5.27a41.174,41.174,0,0,1,6.078,5.741c1.188,1.464,2.713,4.3,5.065,3.434a.506.506,0,0,0,.047-.019c-2.369-2.764-4.621-5.773-7.4-8.145-1.362-1.158-2.815-2.212-4.123-3.435-1.036-.972-1.854-2.143-2.82-3.171C1726.729,952.316,1726.7,952.393,1726.68,952.466Z" transform="translate(-1726.485 -790.464)" fill="#c2a891"></path>
          <g id="Group_2157" data-name="Group 2157" transform="translate(10.333 165.396)">
            <path id="Path_5548" data-name="Path 5548" d="M1745.716,958.937a3.148,3.148,0,0,1,.221,1.76.215.215,0,0,0,.416.109,3.656,3.656,0,0,0-.25-2.064A1.735,1.735,0,0,1,1745.716,958.937Z" transform="translate(-1742.573 -957.805)" fill="#1f2144"></path>
            <path id="Path_5549" data-name="Path 5549" d="M1743.8,958.769a4.637,4.637,0,0,1-.234,1.376c0,.006,0,.008-.006.014s-.01.041-.017.062a.217.217,0,0,0,.42.106,5.108,5.108,0,0,0,.266-1.391.49.49,0,0,1-.07-.022C1744.035,958.872,1743.916,958.821,1743.8,958.769Z" transform="translate(-1741.92 -957.813)" fill="#1f2144"></path>
            <path id="Path_5550" data-name="Path 5550" d="M1741.493,957.4a7.321,7.321,0,0,1-.253,1.474c-.075.267.345.373.42.106a8.509,8.509,0,0,0,.25-1.334c-.043-.029-.089-.051-.132-.08Z" transform="translate(-1741.231 -957.405)" fill="#1f2144"></path>
          </g>
          <path id="Path_5551" data-name="Path 5551" d="M1859.3,884.027c.34.015.674.01,1.007,0a24.91,24.91,0,0,0,2.514-.87c2.736-1.405,5.34-3.038,7.989-4.605a12.807,12.807,0,0,1,3.948-1.538c.522-1.1,1-2.225,1.441-3.328a54.423,54.423,0,0,0,2.9-9.706c.342-1.71.606-3.437.776-5.173.094-.957.209-1.991-.655-2.634-1.066-.794-2.852-.91-4.115-1.134a39.2,39.2,0,0,0-13.908.051.182.182,0,0,0-.306.043l-.006.013-.238.042c-.22.043-.146.34.044.375a26.775,26.775,0,0,1-2.136,3.78c-12.286,10.181-29.47,11.829-42.671,20.615-3.893,2.591-7.3,5.813-10.911,8.763a50.29,50.29,0,0,1-5.823,4.2,44.007,44.007,0,0,1-6.806,3.193c-2.229.868-4.481,1.691-6.634,2.738a30.638,30.638,0,0,0-5.918,3.836c-3.558,2.891-6.781,6.171-10.929,8.236a24.208,24.208,0,0,0-5.759,3.34c-1.576,1.434-2.114,3.286-2.813,5.225a6.151,6.151,0,0,1-2.163,3.134c-.636.455-1.473.893-1.732,1.689-.279.856.31,1.55.791,2.191q1.4,1.864,2.813,3.721a.2.2,0,0,0,.313.029,11.326,11.326,0,0,1,6.112-2.8,24.819,24.819,0,0,0,5.539-1.139c2.931-1.169,5.295-3.35,7.623-5.414a40.438,40.438,0,0,1,4.141-3.346,20.382,20.382,0,0,1,5.23-2.442,61,61,0,0,0,10.412-3.927c6.529-3.492,12.116-8.459,18.544-12.114,7.446-4.234,15.983-5.35,24.264-7,2.205-.44,4.511-.806,6.744-1.378C1850.945,886.827,1855,883.841,1859.3,884.027Z" transform="translate(-1735.416 -761.197)" fill="#e0a377"></path>
          <path id="Path_5552" data-name="Path 5552" d="M1918.272,739.215c-.067.531-.133,1.083-.193,1.658l-.005.038c-.149,1.459-.754,8.925.085,13.389.616,3.268,1.707,3.279,2.859,3.418,2.552.3,7.809.351,9.631-.156,2.44-.675,2.991-1.568,4.425-3.489.054-.014,3.888-9.387,1.185-15.027-1.1-2.293-1.214-5.972-3.507-7.072-2.5-1.2-5.167-4.016-7.971-2.61C1919.928,731.8,1918.86,734.656,1918.272,739.215Z" transform="translate(-1783.714 -723.651)" fill="#eb8773"></path>
          <path id="Path_5553" data-name="Path 5553" d="M1910.124,864.474c-1.454,2.823-4.54,3.962-7.207,5.327-.225.115-.446.238-.67.356a.185.185,0,0,0-.056-.038c-1.833-.761-.126-2.729.746-3.469.837-.71,1.733-1.349,2.57-2.061a8.114,8.114,0,0,0,2.978-4.46c.051-.249-.334-.341-.385-.092-.59,2.9-3.208,4.469-5.319,6.232a4.058,4.058,0,0,0-1.765,2.446,1.671,1.671,0,0,0,.816,1.662c-2.478,1.319-4.891,2.755-7.3,4.2-.219.131-.008.465.212.334,2.974-1.782,5.953-3.567,9.06-5.115,2.549-1.27,5.3-2.471,6.668-5.132A.2.2,0,0,0,1910.124,864.474Z" transform="translate(-1776.747 -762.827)" fill="#5c3241"></path>
          <path id="Path_5554" data-name="Path 5554" d="M1920.428,749.161c-.036.742-.331,1.331-.657,1.315s-.562-.631-.526-1.373.331-1.331.658-1.315S1920.465,748.419,1920.428,749.161Z" transform="translate(-1784.169 -729.28)" fill="#5c3241"></path>
          <path id="Path_5555" data-name="Path 5555" d="M1917.657,759.024c.052.516.044,1.037.135,1.528a3.946,3.946,0,0,0,2.994-1.116c.1-.139.012-.377-.156-.36A14.605,14.605,0,0,1,1917.657,759.024Z" transform="translate(-1783.695 -732.642)" fill="#cc6c59"></path>
          <path id="Path_5556" data-name="Path 5556" d="M1933.581,775.828c-.06-.712-.268-.756-.974-.715-1.422.083-2.842.2-4.263.3-4.617.322-10.339-.038-13.27,4.08-8.413,6.612-11.274,17.489-12.873,24a57.589,57.589,0,0,1-2.18,7,45.71,45.71,0,0,0-2.31,6.836,16.19,16.19,0,0,0-.033,6.229c.194,1.13.434,2.254.553,3.4a15.774,15.774,0,0,1-.055,3.264c-.218,2.162.084,4.1,1.752,5.57a7.555,7.555,0,0,0,6.071,1.53.163.163,0,0,0,.139-.178c3.06-.449,6.121.186,9.119.8,2.81.575,6.063,1.416,8.932.693,3.159-.8,3.779-4.3,4.555-7.057.989-3.511,1.864-7.055,2.565-10.634.526-2.683.954-5.392,1.258-8.113a24.572,24.572,0,0,0,.8-4.1c.265-2.578.241-5.2.311-7.784.149-5.558.261-11.117.184-16.677C1933.824,781.456,1933.818,778.621,1933.581,775.828Z" transform="translate(-1777.63 -737.454)" fill="#fff"></path>
          <path id="Path_5557" data-name="Path 5557" d="M1918.421,743.586c-.067.531-.133,1.083-.193,1.658l-.005.039a10,10,0,0,1,2.063.348c.374.1.914.353,1.295.1.874-.574-.219-1.478-.788-1.707A6.528,6.528,0,0,0,1918.421,743.586Z" transform="translate(-1783.864 -728.022)" fill="#5c3241"></path>
          <path id="Path_5558" data-name="Path 5558" d="M1915.22,752.684c-.146,1.172.988,1.767,2.107,1.678a.213.213,0,0,0,.179-.114,12.216,12.216,0,0,0,.352-3.527,4.633,4.633,0,0,0-.3-2.8.188.188,0,0,0-.111-.09c.067-.174.133-.348.2-.521.1-.256-.28-.46-.38-.2q-.58,1.478-1.146,2.961A12.171,12.171,0,0,0,1915.22,752.684Z" transform="translate(-1782.962 -729.04)" fill="#eb8773"></path>
          <path id="Path_5559" data-name="Path 5559" d="M1930.512,754.467a.744.744,0,0,0,.223-1.2c-.184-.208.16-.468.343-.261a1.176,1.176,0,0,1-.4,1.864C1930.427,754.984,1930.263,754.586,1930.512,754.467Z" transform="translate(-1787.505 -730.817)" fill="#cc6c59"></path>
          <path id="Path_5560" data-name="Path 5560" d="M1930.116,757.813a1.289,1.289,0,0,0,1.514-.023,3.393,3.393,0,0,0,.722-1.017c.142-.237.481.03.34.266a2.651,2.651,0,0,1-1.216,1.328,1.758,1.758,0,0,1-1.626-.214C1929.618,758,1929.884,757.663,1930.116,757.813Z" transform="translate(-1787.317 -731.941)" fill="#cc6c59"></path>
          <path id="Path_5561" data-name="Path 5561" d="M1901.858,786.649a1.289,1.289,0,0,1-.752-.26q-6.183,3.925-12.217,8.077a106.021,106.021,0,0,0-11.11,8.562,53.189,53.189,0,0,1-5.6,4.627,68.556,68.556,0,0,1-6.223,3.463,130.261,130.261,0,0,0-12.16,8.032l-3.557,2.469a21.58,21.58,0,0,0-3.1,2.19,1.286,1.286,0,0,0-.318,1.582c.281.581,1.627,1.458,1.223,2.161a.2.2,0,0,0,.259.282,112.76,112.76,0,0,1,14.433-6.689c2.542-.964,5.119-1.814,7.719-2.607a17.276,17.276,0,0,0,6.214-3.132,49.227,49.227,0,0,1,6.032-4.349c2.151-1.283,4.385-2.417,6.617-3.55,2.186-1.109,4.375-2.217,6.488-3.461a17.186,17.186,0,0,0,4.941-3.868c1.628-2.052,1.891-4.641,2.036-7.167a11.9,11.9,0,0,0-.922-6.359Z" transform="translate(-1762.452 -740.831)" fill="#eb8773"></path>
          <path id="Path_5562" data-name="Path 5562" d="M1916.483,786.792a18.394,18.394,0,0,0-1.656-5.5c-2.268.758-.248-2.59-2.122-2-1.561,1.5-12.91,10.4-14.538,11.8q-4.07,3.5-8.263,6.862c-1.407,1.128-2.933,2.169-4.275,3.371a1.4,1.4,0,0,0-.584.984,1.722,1.722,0,0,0,.4.858,6.067,6.067,0,0,1,.606,1.347c.541,1.694.612,3.5,1.11,5.214a19.693,19.693,0,0,0,2.221,4.932.147.147,0,0,0,.195.059,46.042,46.042,0,0,1,5.45-2.523,27.4,27.4,0,0,1,5.475-1.131,14.638,14.638,0,0,0,5.092-2.1c1.7-.982,3.337-2.062,4.934-3.2,1.51-1.074,3.03-2.167,4.45-3.357a5.941,5.941,0,0,0,2.09-3.956,26.017,26.017,0,0,0,.068-6.07C1916.984,790.515,1916.794,788.64,1916.483,786.792Z" transform="translate(-1773.935 -738.687)" fill="#fff"></path>
          <path id="Path_5563" data-name="Path 5563" d="M1927.616,792.97a8.22,8.22,0,0,1-3.933,3.671,9.267,9.267,0,0,0,2.277-5.109,23.441,23.441,0,0,0-.857-8.037.144.144,0,0,0-.28.067,23.557,23.557,0,0,1,.864,7.843,9.693,9.693,0,0,1-1.059,3.5,13.168,13.168,0,0,1-2.346,2.746c-1.516,1.583-2,3.8-3.2,5.593a11.726,11.726,0,0,1-5.142,4.216c-.17.073-.034.327.136.254a12.013,12.013,0,0,0,5-3.955,17.291,17.291,0,0,0,1.657-3.051,10.21,10.21,0,0,1,2.265-3.35c.076-.072.149-.146.222-.219a8.5,8.5,0,0,0,4.642-4.013C1927.946,792.961,1927.7,792.806,1927.616,792.97Z" transform="translate(-1782.559 -739.933)" fill="#1f2144"></path>
          <path id="Path_5564" data-name="Path 5564" d="M1834.662,894.471a22.954,22.954,0,0,0-7.246,4.844,22.5,22.5,0,0,0-2.789,3.375c-.937,1.388-1.634,2.917-2.537,4.324a25.779,25.779,0,0,1-3.558,4.006,24.066,24.066,0,0,0-3,3.723,54.489,54.489,0,0,0-4.448,9.1c-.1.233.251.422.349.187a58.333,58.333,0,0,1,4.087-8.532,23.547,23.547,0,0,1,3.058-3.958,37.294,37.294,0,0,0,3.34-3.576c.964-1.305,1.638-2.789,2.476-4.173a21.875,21.875,0,0,1,2.774-3.65,22.452,22.452,0,0,1,7.614-5.292C1835.013,894.75,1834.9,894.371,1834.662,894.471Z" transform="translate(-1751.797 -773.171)" fill="#5c3241"></path>
          <path id="Path_5565" data-name="Path 5565" d="M1851.671,899.016a19.708,19.708,0,0,1-4.225,2.967,23.163,23.163,0,0,0-3.679,2.776,40.881,40.881,0,0,0-6.131,7.533c-2,3-3.688,5.983-6.717,8.08a28.745,28.745,0,0,0-3.769,2.88,23.7,23.7,0,0,0-2.877,3.45c-2.079,2.967-3.7,6.227-5.857,9.143-.15.2.138.474.29.27,1.807-2.444,3.25-5.12,4.885-7.677a24.275,24.275,0,0,1,6.955-7.332,17.424,17.424,0,0,0,3.691-3.136,36.288,36.288,0,0,0,2.67-3.836,49.864,49.864,0,0,1,6.215-8.2,23.291,23.291,0,0,1,4.4-3.533,21.09,21.09,0,0,0,4.442-3.117C1852.136,899.1,1851.847,898.832,1851.671,899.016Z" transform="translate(-1753.984 -774.518)" fill="#5c3241"></path>
          <path id="Path_5566" data-name="Path 5566" d="M1785.881,940.9l-7.38.257a.2.2,0,0,0,.014.4l7.38-.258A.2.2,0,0,0,1785.881,940.9Z" transform="translate(-1741.996 -787.069)" fill="#5c3241"></path>
          <path id="Path_5567" data-name="Path 5567" d="M1790.991,942.691l-4.715,1.191c-.247.062-.128.44.118.378l4.715-1.191C1791.357,943.006,1791.238,942.629,1790.991,942.691Z" transform="translate(-1744.338 -787.604)" fill="#5c3241"></path>
          <path id="Path_5568" data-name="Path 5568" d="M1853.6,915.008c-1.791,2.5-1.661,6-3.92,8.208-.183.178.107.447.29.27,2.294-2.238,2.167-5.757,3.979-8.291C1854.1,914.989,1853.75,914.8,1853.6,915.008Z" transform="translate(-1763.336 -779.295)" fill="#5c3241"></path>
          <path id="Path_5569" data-name="Path 5569" d="M1793.317,974.028c-.158-.2-.494.013-.334.211a13.614,13.614,0,0,1,2.774,5.892c.051.249.428.13.378-.118A13.838,13.838,0,0,0,1793.317,974.028Z" transform="translate(-1746.372 -796.961)" fill="#5c3241"></path>
          <path id="Path_5570" data-name="Path 5570" d="M1843.353,836.249a1.214,1.214,0,0,0-.945-.427c-.5.008-.944.081-1.4.1a4.2,4.2,0,0,0-.411-.4,17.191,17.191,0,0,1-1.331-1.344c-.514-.58-.99-1.192-1.454-1.812-.158-.212-.366-.668-.645-.751-.569-.167-.632.49-.56.914a4.744,4.744,0,0,0,.743,1.678c-1.1-1.982-2.191-2.43-2.932-3.465a7.068,7.068,0,0,0-2.663-2.214.187.187,0,0,0-.272.169c-.014.43.151.532.235.931-.534-.688-1.247-.73-1.955-1.263a.187.187,0,0,0-.306.092c-.22,1.172.879,1.764,1.461,2.708.062.1.126.2.19.3-.1-.055-.193-.113-.3-.162-.477-.226-2.731-1.283-3.078-.575s1.852,1.584,2.246,1.875c.673.5,4.7,3.563,5.837,4.591,1.073.968,1.893,2.231,3.044,3.106a3.389,3.389,0,0,0,2.865.734c1.238-.346,2.125-1.866,2.79-2.858C1845.107,837.3,1843.99,836.808,1843.353,836.249Z" transform="translate(-1756.776 -753.377)" fill="#eb8773"></path>
          <path id="Path_5571" data-name="Path 5571" d="M1837.118,833.515a14.644,14.644,0,0,0-3.171-3.353c-.189-.171-.46.118-.27.289a14.361,14.361,0,0,1,3.107,3.275C1836.91,833.947,1837.245,833.735,1837.118,833.515Z" transform="translate(-1758.544 -753.915)" fill="#cc6c59"></path>
          <path id="Path_5572" data-name="Path 5572" d="M1835.928,834.732c-.422-.427-.857-.841-1.31-1.236a3.518,3.518,0,0,0-1.151-.821c-.243-.076-.333.31-.092.385a4.055,4.055,0,0,1,1.218.943q.547.493,1.064,1.019C1835.837,835.2,1836.107,834.914,1835.928,834.732Z" transform="translate(-1758.431 -754.68)" fill="#cc6c59"></path>
          <path id="Path_5573" data-name="Path 5573" d="M1941.7,730.545a7.49,7.49,0,0,0-3.906-3.535,17.358,17.358,0,0,1-1.853-.648,7.264,7.264,0,0,1-1.922-2.024,8.289,8.289,0,0,0-1.414-1.31,8.693,8.693,0,0,0-3.733-1.552c-2.5-.4-5.787.338-6.162,3.247-1.648-.629-3.563-.921-4.818.7a3.307,3.307,0,0,0-.383,4.011,3.789,3.789,0,0,0-1.262-.02c-.479.074-1.056.2-1.182.743-.267,1.138,1.343,1.987,2.185,2.263a10,10,0,0,0,2.911.465c.175.58,1.272.915,1.723,1.088a7.512,7.512,0,0,0,1.643.418,4.32,4.32,0,0,1,1.865.373c.642.427.66,1.63.533,2.321-.118.643-.549,1.162-.7,1.8a2.661,2.661,0,0,0,.419,2.315,2.261,2.261,0,0,0,1.056.53,4.462,4.462,0,0,1,1.626.79c2.2,1.806,1.843,4.7,2.6,7.15a3.144,3.144,0,0,0,1.95,2.232c.905.281,4.084-.533,4.284-.615.083-.034.6-2.221,1.479-4.976a15.356,15.356,0,0,0,1.233-2.347,5.935,5.935,0,0,0,.364-1.4,11.341,11.341,0,0,1,.2-2.091,26.951,26.951,0,0,1,1.81-3.434A7.183,7.183,0,0,0,1941.7,730.545Z" transform="translate(-1782.91 -721.376)" fill="#5c3241"></path>
          <path id="Path_5574" data-name="Path 5574" d="M1951.235,739.387c-.067-.173-.324-.043-.258.129a2.875,2.875,0,0,1-.137,2.417c-.086.163.153.325.239.161A3.19,3.19,0,0,0,1951.235,739.387Z" transform="translate(-1793.62 -726.741)" fill="#1f2144"></path>
          <path id="Path_5575" data-name="Path 5575" d="M1949.663,741.339a.144.144,0,0,0-.282.059,2.053,2.053,0,0,1-.441,1.769c-.118.143.123.3.239.16A2.329,2.329,0,0,0,1949.663,741.339Z" transform="translate(-1793.047 -727.317)" fill="#1f2144"></path>
          <path id="Path_5576" data-name="Path 5576" d="M1928.207,735.231a7.192,7.192,0,0,0-4.983-.224.144.144,0,0,0,.059.282,6.912,6.912,0,0,1,4.763.182C1928.209,735.555,1928.371,735.317,1928.207,735.231Z" transform="translate(-1785.328 -725.355)" fill="#1f2144"></path>
          <path id="Path_5577" data-name="Path 5577" d="M1931.041,733.678a1.989,1.989,0,0,0-1.872-1.1c-.184.008-.2.3-.015.288a1.7,1.7,0,0,1,1.629.939A.144.144,0,0,0,1931.041,733.678Z" transform="translate(-1787.096 -724.728)" fill="#1f2144"></path>
        </g>
        <path id="Path_5578" data-name="Path 5578" d="M1784.624,990.411a38.733,38.733,0,0,1-1.877-5.075c-27.031.839-60.655,1.586-90.073,2.723-.487,1.455-1.06,3.268-1.068,3.449,0,.095,0,.21-.009.341-.032.87-.106,2.5-.275,3.923,37.56-1.441,74.519-2.856,93.955-3.6C1785.041,991.591,1784.82,991,1784.624,990.411Z" transform="translate(-1677.741 -800.368)" fill="#5c3241"></path>
        <path id="Path_5579" data-name="Path 5579" d="M1782.151,989.051q-12.809.594-25.619,1.142-22.835.976-45.684,1.778-9.564.341-19.125.647c0,.095,0,.21-.009.341q22.386-.72,44.766-1.6,22.843-.9,45.676-1.967A.169.169,0,0,0,1782.151,989.051Z" transform="translate(-1677.858 -801.48)" fill="#1f2144"></path>
        <path id="Path_5580" data-name="Path 5580" d="M1718.34,871.053c-7.229,27.923-17.147,69.7-26.274,105.03-1.525.167-3.419.341-3.6.31-.093-.021-.205-.041-.336-.063-.856-.154-2.465-.428-3.891-.566,13.487-52.26,26.661-103.336,27-104.634A26.9,26.9,0,0,0,1718.34,871.053Z" transform="translate(-1675.622 -766.168)" fill="#5c3241"></path>
        <path id="Path_5581" data-name="Path 5581" d="M1717.469,871.829c-2.2,8.26-9.02,33.655-11.191,41.923q-5.807,22.107-11.449,44.262-2.366,9.274-4.7,18.55c-.093-.021-.205-.041-.335-.063q5.464-21.722,11.084-43.4c3.823-14.753,12.33-46.624,16.26-61.346C1717.2,871.54,1717.526,871.617,1717.469,871.829Z" transform="translate(-1677.284 -766.339)" fill="#1f2144"></path>
        <path id="Path_5582" data-name="Path 5582" d="M1776.238,869.363c9.157,27.351,21.963,68.333,33.531,102.943,1.533.059,3.434.1,3.61.059.091-.027.2-.055.331-.087.843-.213,2.429-.6,3.843-.835-17.1-51.193-33.8-101.226-34.225-102.5A26.9,26.9,0,0,1,1776.238,869.363Z" transform="translate(-1703.153 -765.537)" fill="#232c44"></path>
        <path id="Path_5583" data-name="Path 5583" d="M1779.971,869.858c2.772,8.086,11.294,33.084,14.036,41.181q7.334,21.649,14.506,43.356,3.007,9.087,5.979,18.178c.091-.027.2-.055.331-.087q-6.965-21.288-14.083-42.524c-4.842-14.451-15.5-45.791-20.446-60.2C1780.222,869.551,1779.9,869.65,1779.971,869.858Z" transform="translate(-1704.267 -765.746)" fill="#1f2144"></path>
        <g id="Group_2162" data-name="Group 2162" transform="translate(146.259 73.629)">
          <path id="Path_5584" data-name="Path 5584" d="M1924.124,890.774c-.376-.679-1.284-.425-2.091-.308l-5.074.741-20.1,2.933c-2.78.406-6.287.582-8.5,2.242a6.352,6.352,0,0,0-2.3,4.846.139.139,0,0,0-.024.251c-.017.188-.031.375-.045.558s.374.223.389.027.029-.388.046-.586c6.625-.742,13.25-1.474,19.871-2.262q5.073-.6,10.138-1.265,2.533-.333,5.063-.687c1.008-.141,2.319-.186,2.975-.935a2.805,2.805,0,0,0,.38-2.249A8.731,8.731,0,0,0,1924.124,890.774Z" transform="translate(-1882.247 -845.563)" fill="#bd6a64"></path>
          <g id="Group_2161" data-name="Group 2161" transform="translate(0 46.125)">
            <g id="Group_2159" data-name="Group 2159" transform="translate(27.428 5.066)">
              <path id="Path_5585" data-name="Path 5585" d="M1923.783,961.706c.247.035.49.081.732.132,1.364-20.513,2.783-41.94,4.139-62.338a8.209,8.209,0,0,1-1.409.67,6.435,6.435,0,0,1-3.325.256c-.4,5.608-.8,11.121-1.177,16.45-.1,1.405-.2,2.79-.293,4.165-.52,7.287-1.5,22.5-2.647,40.471A23.16,23.16,0,0,1,1923.783,961.706Z" transform="translate(-1919.803 -899.501)" fill="#676ea8"></path>
            </g>
            <g id="Group_2160" data-name="Group 2160" transform="translate(12.963 62.699)">
              <path id="Path_5586" data-name="Path 5586" d="M1932.337,981.788c-6.13.233-17.855.748-32.106,1.394q-.5,2.4-1.07,4.8l33.021-1.417c.288-1.191.587-2.378.885-3.56.106-.418.215-.838.321-1.256C1933.038,981.76,1932.686,981.774,1932.337,981.788Z" transform="translate(-1899.161 -981.747)" fill="#676ea8"></path>
            </g>
            <path id="Path_5587" data-name="Path 5587" d="M1936.045,892.425a22.6,22.6,0,0,1-.7,2.435.169.169,0,0,0-.079,0c-2.921.589-12.383,1.331-22.567,2.022-.13.008-.265.017-.4.029-13.55.912-28.246,1.734-30.466,1.973a.207.207,0,0,0-.195.209q-.039,1.771-.217,3.531c-.011.135-.027.27-.042.4q-.247,2.3-.719,4.57a.2.2,0,0,0,.2.25c6.957-.06,19.357-.477,30.335-.995.134-.008.268-.013.4-.022,10.469-.5,19.568-1.079,21.31-1.528a.2.2,0,0,0,.139-.2c-.139-4.46,2.469-8.335,3.389-12.587A.2.2,0,0,0,1936.045,892.425Z" transform="translate(-1880.661 -892.272)" fill="#676ea8"></path>
            <path id="Path_5588" data-name="Path 5588" d="M1903.772,997.192a3.937,3.937,0,1,1-3.384-4.792A4.161,4.161,0,0,1,1903.772,997.192Z" transform="translate(-1885.241 -922.229)" fill="#676ea8"></path>
            <path id="Path_5589" data-name="Path 5589" d="M1944.559,995.261a3.937,3.937,0,1,1-3.383-4.792A4.16,4.16,0,0,1,1944.559,995.261Z" transform="translate(-1897.447 -921.651)" fill="#676ea8"></path>
            <path id="Path_5590" data-name="Path 5590" d="M1912.528,902.992a.2.2,0,0,1-.015.147c-.211,1.884-.411,3.775-.6,5.662-.13.008-.265.013-.4.022q.283-2.782.594-5.567-15.212.869-30.411,1.742c.015-.131.03-.266.041-.4l30.415-1.739q.222-1.991.463-3.974c.13-.013.265-.021.4-.03Q1912.761,900.924,1912.528,902.992Z" transform="translate(-1880.971 -894.242)" fill="#1f2144"></path>
            <path id="Path_5591" data-name="Path 5591" d="M1900.574,995.276a.19.19,0,0,0-.055.046c-2.091.725-2.131,5.216.456,4.5C1903.271,999.181,1902.873,994.078,1900.574,995.276Zm-.278,4.181c-1.76-.432-.921-3.406.434-3.791a.174.174,0,0,0,.1-.076c.936-.444,1.282.679,1.315,1.277a4.028,4.028,0,0,1-.074.987C1901.917,998.65,1901.29,999.7,1900.3,999.457Z" transform="translate(-1886.146 -923.042)" fill="#1f2144"></path>
            <path id="Path_5592" data-name="Path 5592" d="M1941.422,993.425a.2.2,0,0,0-.056.045c-2.09.725-2.13,5.216.457,4.5C1944.119,997.331,1943.721,992.227,1941.422,993.425Zm-.278,4.181c-1.76-.432-.921-3.406.433-3.791a.175.175,0,0,0,.1-.076c.935-.444,1.282.679,1.314,1.277a4.046,4.046,0,0,1-.074.986C1942.764,996.8,1942.138,997.85,1941.144,997.607Z" transform="translate(-1898.37 -922.489)" fill="#1f2144"></path>
          </g>
          <path id="Path_5593" data-name="Path 5593" d="M1962.445,827.807c-1.453-1.8-4.357-1.317-6.215-1.252-2.63.088-10.7.805-14.92,1.253-.166.014-.324.032-.473.048-.6.064-1.092.121-1.459.17-2.243.292-4.315.926-5.682,2.685-1.406,1.806-1.9,4.191-2.4,6.429-.629,2.837-5.166,35.394-6.3,48.925a.189.189,0,0,0,.134.2,2.457,2.457,0,0,0,.306.734.238.238,0,0,0,.226.118l6.226-.455c.135-.008.265-.021.4-.029l12.382-.907,4.351-.318a9.43,9.43,0,0,0,3.563-.682c1.933-.978,2.36-3.261,2.75-5.246,2.384-12.034,3.541-24.222,5.916-36.26.572-2.9,1.16-5.8,1.544-8.743a33.905,33.905,0,0,0,.366-4.031A4,4,0,0,0,1962.445,827.807Z" transform="translate(-1893.929 -826.448)" fill="#676ea8"></path>
          <path id="Path_5594" data-name="Path 5594" d="M1944.254,828.388a18.719,18.719,0,0,0-.737,2.354c-.728,2.844-1.293,5.729-1.781,8.624-1.818,10.759-3.169,21.613-4.572,32.432q-1,7.7-1.936,15.411c-.13.008-.26.021-.4.029q.128-1.1.264-2.194,2.051-16.786,4.427-33.532c.779-5.474,1.5-10.97,2.594-16.4a41.9,41.9,0,0,1,1.663-6.681C1943.93,828.419,1944.088,828.4,1944.254,828.388Z" transform="translate(-1896.872 -827.029)" fill="#1f2144"></path>
        </g>
      </g>
      <path id="Path_5595" data-name="Path 5595" d="M1478.708,1033.695c.19-.021.379-.045.568-.07a5.489,5.489,0,0,0-.661-.1A.872.872,0,0,1,1478.708,1033.695Z" transform="translate(-82.576 -107.255)" fill="#a1a3b5"></path>
      <g id="Group_2166" data-name="Group 2166" transform="translate(1356.319 775.922)">
        <path id="Path_5596" data-name="Path 5596" d="M1653.248,882.131l-1.418,15.066-.045.5-1.738,18.5-.05.5-1.671,17.768-.045.491-1.734,18.443-.05.5-2.58,27.458-31.051,15.764-.468.239h-73.705L1545.65,881.7Z" transform="translate(-1456.873 -837.743)" fill="#fff"></path>
        <path id="Path_5597" data-name="Path 5597" d="M1555.964,1055.659a51.375,51.375,0,0,1-2.25-6.8c-35.813-.138-80.346-.7-119.332-.556-.712,1.9-1.554,4.277-1.572,4.515,0,.126-.016.277-.029.452-.082,1.149-.255,3.3-.545,5.179,49.774-.173,98.753-.339,124.51-.427C1556.46,1057.239,1556.2,1056.453,1555.964,1055.659Z" transform="translate(-1425.015 -887.591)" fill="#5c3241"></path>
        <path id="Path_5598" data-name="Path 5598" d="M1552.882,1053.972q-16.979.2-33.957.329-30.268.235-60.543.244-12.674.009-25.34-.027c0,.126-.016.278-.029.452q29.661.08,59.32-.057,30.273-.136,60.54-.493A.224.224,0,0,0,1552.882,1053.972Z" transform="translate(-1425.247 -889.296)" fill="#1f2144"></path>
        <path id="Path_5599" data-name="Path 5599" d="M1471.893,893.656c-10.856,36.621-25.911,91.45-39.622,137.788-2.026.15-4.541.294-4.775.244-.121-.031-.271-.063-.441-.1-1.125-.243-3.242-.68-5.124-.928,20.262-68.541,40.056-135.528,40.56-137.23A35.633,35.633,0,0,0,1471.893,893.656Z" transform="translate(-1421.931 -841.253)" fill="#232c44"></path>
        <path id="Path_5600" data-name="Path 5600" d="M1470.7,894.609c-3.3,10.829-13.492,44.124-16.747,54.966q-8.706,28.989-17.2,58.049-3.56,12.165-7.074,24.333c-.121-.032-.271-.063-.441-.1q8.234-28.5,16.674-56.928c5.74-19.348,18.471-61.135,24.352-80.438C1470.355,894.213,1470.787,894.33,1470.7,894.609Z" transform="translate(-1424.119 -841.522)" fill="#1f2144"></path>
        <path id="Path_5601" data-name="Path 5601" d="M1550.653,893.656c10.856,36.621,25.912,91.45,39.623,137.788,2.026.15,4.54.294,4.774.244.122-.031.271-.063.442-.1,1.125-.243,3.242-.68,5.124-.928-20.262-68.541-40.056-135.528-40.56-137.23A35.634,35.634,0,0,1,1550.653,893.656Z" transform="translate(-1460.452 -841.253)" fill="#232c44"></path>
        <path id="Path_5602" data-name="Path 5602" d="M1555.576,894.348c3.3,10.829,13.419,44.306,16.674,55.149q8.707,28.989,17.2,58.049,3.559,12.164,7.073,24.333c.122-.032.271-.063.441-.1q-8.233-28.5-16.673-56.928c-5.741-19.348-18.4-61.318-24.279-80.621C1555.922,893.951,1555.491,894.069,1555.576,894.348Z" transform="translate(-1461.922 -841.444)" fill="#1f2144"></path>
        <path id="Path_5603" data-name="Path 5603" d="M1652.579,885.491q-1.181,16.136-2.359,32.267-2.094,28.685-4.192,57.365-.844,11.522-1.684,23.054l-.469.238q2.034-27.78,4.062-55.559l4.03-55.146q-.1.365-.2.729a.227.227,0,0,1-.437-.121q.4-1.446.811-2.886C1652.205,885.189,1652.6,885.234,1652.579,885.491Z" transform="translate(-1488.35 -838.811)" fill="#1f2144"></path>
        <g id="Group_2164" data-name="Group 2164" transform="translate(158.534 59.454)">
          <path id="Path_5604" data-name="Path 5604" d="M1648.168,996.718l.042.313c0,.05,0,.1-.006.15l5.078-2.024q13.022-5.19,26.043-10.377l.049-.5Z" transform="translate(-1648.168 -927.895)" fill="#1f2144"></path>
          <path id="Path_5605" data-name="Path 5605" d="M1650.252,969.715c-.016.169-.038.337-.064.5l6.532-2.6q12.488-4.975,24.971-9.955l.045-.492Q1665.994,963.441,1650.252,969.715Z" transform="translate(-1648.772 -919.781)" fill="#1f2144"></path>
          <path id="Path_5606" data-name="Path 5606" d="M1652,943.761c.008.1.023.2.028.307,0,.053,0,.106,0,.159l8.268-3.3q11.821-4.707,23.637-9.418l.049-.5Z" transform="translate(-1649.313 -911.955)" fill="#1f2144"></path>
          <path id="Path_5607" data-name="Path 5607" d="M1653.721,916.778c0,.015,0,.029,0,.044.006.146,0,.29-.006.435l10.573-4.213q10.96-4.364,21.916-8.733l.044-.5Z" transform="translate(-1649.829 -903.814)" fill="#1f2144"></path>
        </g>
        <path id="Path_5608" data-name="Path 5608" d="M1619.919,871.887c-.006-.154-.017-.307-.031-.456-.011-.113-.027-.221-.043-.33a.221.221,0,0,0-.213-.17c-28.843-.453-71.538-1.4-77.773-1.068-6.045.325-112.608,13.8-112.784,13.844a.6.6,0,0,0-.181.083l-.14,0a94.885,94.885,0,0,0-2.386,10.714c51.09.646,101.362,1.282,128.15,1.624a.773.773,0,0,0,.594.008h.008v0c1.521-.486,47.1-11.773,64.35-17.291a.244.244,0,0,0,.163-.271C1619.3,876.5,1620.022,874.041,1619.919,871.887Z" transform="translate(-1423.259 -834.179)" fill="#e6d6cf"></path>
        <path id="Path_5609" data-name="Path 5609" d="M1620.9,872.586c-.006-.153-.017-.307-.031-.455q-19.17,4.461-38.369,8.824c-8.163,1.865-17.819,3.765-26.013,5.6l.015-.095c-11.649-.1-30.125-.35-40.949-.477q-30.264-.345-60.538-.92-12.669-.23-25.332-.514c-.007.125-.023.278-.04.454q29.657.651,59.314,1.081c19.6.291,47.144.659,67.287.818-.18,3.258-.384,6.514-.63,9.768-.022.289.429.3.451.008.244-3.232.446-6.466.626-9.7,19.2-4.305,39.857-8.74,59-13.179Q1618.2,873.216,1620.9,872.586Z" transform="translate(-1424.239 -834.878)" fill="#1f2144"></path>
        <path id="Path_5610" data-name="Path 5610" d="M1598.236,855.3c-.022-.054-.059-.085-.094-.085-.293-.014-.617-.027-.969-.046-7.051-.306-24.62-.977-27.809-.878.163-5.907-.041-30.294-.045-35.049,0-.139-.072-.284-.225-.275-8.461.518-26,3.1-26,3.4.464,15.606,1.131,20.244.469,38.291a.262.262,0,0,0,.054.18c-.005.059-.009.121-.014.18a.231.231,0,0,0,.167.216c1.743.352,32.186,1.3,37.94,1.338.2,0,.369,0,.5,0a3.5,3.5,0,0,0,.414-.013c.711-.113,13.549-4.89,15.526-5.71C1598.331,856.779,1598.4,855.626,1598.236,855.3Z" transform="translate(-1458.189 -818.969)" fill="#1f2144"></path>
        <path id="Path_5611" data-name="Path 5611" d="M1568.944,820.518a.188.188,0,0,0-.2-.212.183.183,0,0,0-.167-.058q-11.577,1.323-23.018,3.566a.185.185,0,0,0-.158.2.2.2,0,0,0-.059.153q.325,17.216.626,34.428a.23.23,0,0,0,.284.216c1.058-.144,2.112-.293,3.17-.455q8.861-1.324,17.6-3.364l.59-.135a7.2,7.2,0,0,0,1.486-.486C1569.092,841.933,1569.115,832.45,1568.944,820.518Z" transform="translate(-1458.862 -819.352)" fill="#fff"></path>
        <path id="Path_5612" data-name="Path 5612" d="M1583.146,876.581a4.374,4.374,0,0,1,0,1.454c-.135,0-.306,0-.5,0a4.194,4.194,0,0,0,.059-1.2c-.315-.671-2.364-.54-2.963-.585l-2.455-.2c-3.417-.275-6.835-.572-10.252-.815-3.476-.247-6.952-.126-10.433-.216-3.4-.085-6.786-.352-10.158-.766-.283-.036-.288-.486,0-.45,7.592.936,15.2.544,22.811,1.153q5.687.459,11.379.914a5.884,5.884,0,0,1,2.111.217q7.613-2.918,15.368-5.449c.352.018.676.031.968.045.036,0,.072.032.095.086q-8.119,2.62-16.084,5.669A.716.716,0,0,1,1583.146,876.581Z" transform="translate(-1459.128 -834.43)" fill="#545b94"></path>
        <path id="Path_5613" data-name="Path 5613" d="M1568.364,840.615c-.041-2.922.414-14.863-.18-15.458-.531-.527-1.405-.324-2.017-.23-1.427.216-2.85.455-4.277.68l-3.557.568c-.149.022-.3.05-.446.072-1.517.243-3.03.481-4.548.725-.761.122-1.851.068-2.354.72-.608.793-.4,2.368-.442,3.332-.1,2.2-.126,4.4-.108,6.6,0,.153,0,.311,0,.464,0,.59.009,1.175.022,1.765.126,6.619.3,5.211.246,11.826q8.862-1.323,17.6-3.364C1568.447,842.994,1568.436,846.037,1568.364,840.615Z" transform="translate(-1460.385 -820.717)" fill="#545b94"></path>
        <path id="Path_5614" data-name="Path 5614" d="M1558.279,835.039a4.474,4.474,0,0,1-.144,1.72c-.2.378-.406.406-.82.486-.9.18-1.81.32-2.711.5q-2.094.42-4.165.932c0-.153,0-.31,0-.464,1.067-.261,2.143-.509,3.219-.734q1.141-.236,2.287-.446a5.06,5.06,0,0,0,1.045-.18.471.471,0,0,0,.608-.491.977.977,0,0,0,.2-.648,29.216,29.216,0,0,0,.154-4.706c.009-1.391-.013-2.783-.059-4.174.148-.022.3-.05.446-.072.058,1.711.081,3.431.049,5.142Q1558.357,833.474,1558.279,835.039Z" transform="translate(-1460.387 -821.3)" fill="#fff"></path>
        <g id="Group_2165" data-name="Group 2165" transform="translate(98.997 16.515)">
          <path id="Path_5615" data-name="Path 5615" d="M1563.487,844.126q3.362-.724,6.772-1.137c.284-.034.287-.485,0-.45q-3.473.417-6.892,1.153C1563.084,843.753,1563.2,844.187,1563.487,844.126Z" transform="translate(-1563.205 -842.537)" fill="#fff"></path>
          <path id="Path_5616" data-name="Path 5616" d="M1570.259,846.546q-3.473.418-6.892,1.153c-.283.061-.163.495.12.434q3.362-.724,6.772-1.137C1570.542,846.962,1570.546,846.512,1570.259,846.546Z" transform="translate(-1563.205 -843.736)" fill="#fff"></path>
          <path id="Path_5617" data-name="Path 5617" d="M1570.259,854.041q-3.473.418-6.892,1.153c-.283.061-.163.5.12.434q3.362-.724,6.772-1.137C1570.542,854.457,1570.546,854.007,1570.259,854.041Z" transform="translate(-1563.205 -845.979)" fill="#fff"></path>
          <path id="Path_5618" data-name="Path 5618" d="M1570.259,850.228q-3.473.417-6.892,1.153c-.283.061-.163.5.12.435q3.362-.725,6.772-1.137C1570.542,850.644,1570.546,850.193,1570.259,850.228Z" transform="translate(-1563.205 -844.838)" fill="#fff"></path>
        </g>
      </g>
      <path id="Path_5619" data-name="Path 5619" d="M1720.01,943.667c-.318-1.076-1.381-.889-2.309-.882l-5.837.048-23.121.193c-3.2.027-7.179-.433-9.936,1.557-2.139,1.545-2.891,4.163-3.357,6.667a.232.232,0,0,0-.066.364c-.048.274-.1.546-.139.814s.387.4.434.119.094-.565.144-.853c7.584.267,15.168.55,22.755.749q5.813.152,11.628.219,2.907.029,5.815.027c1.16,0,2.644.2,3.5-.766a5.065,5.065,0,0,0,.782-3.235A16.884,16.884,0,0,0,1720.01,943.667Z" transform="translate(-141.417 -80.095)" fill="#bd6a64"></path>
      <g id="Group_2169" data-name="Group 2169" transform="translate(1529.818 865.002)">
        <g id="Group_2167" data-name="Group 2167" transform="translate(29.147 4.996)">
          <path id="Path_5620" data-name="Path 5620" d="M1715.64,1023.787c.28.049.555.111.828.18,2.366-23.281,4.832-47.6,7.183-70.746a9.38,9.38,0,0,1-1.629.707,7.335,7.335,0,0,1-3.792.159c-.678,6.363-1.345,12.619-1.992,18.665-.167,1.594-.339,3.165-.5,4.726-.881,8.269-2.605,25.536-4.618,45.932A26.345,26.345,0,0,1,1715.64,1023.787Z" transform="translate(-1711.12 -953.221)" fill="#676ea8"></path>
        </g>
        <g id="Group_2168" data-name="Group 2168" transform="translate(12.62 70.988)">
          <path id="Path_5621" data-name="Path 5621" d="M1725.519,1047.4c-6.983.022-20.34.142-36.577.312q-.669,2.714-1.406,5.414l37.616-.3c.375-1.343.762-2.682,1.149-4.013.137-.472.277-.945.414-1.416Z" transform="translate(-1687.535 -1047.395)" fill="#676ea8"></path>
        </g>
        <path id="Path_5622" data-name="Path 5622" d="M1733.129,946.257a25.774,25.774,0,0,1-.891,2.743.2.2,0,0,0-.09,0c-3.345.554-14.139,1.022-25.751,1.4-.149,0-.3.009-.451.018-15.449.5-32.2.851-34.734,1.036a.236.236,0,0,0-.229.23q-.116,2.013-.388,4.007c-.018.153-.041.306-.063.455q-.371,2.607-1,5.169a.233.233,0,0,0,.221.293c7.916.208,22.037.225,34.545.072.154,0,.306,0,.455-.009,11.928-.149,22.3-.451,24.3-.891a.231.231,0,0,0,.166-.221c.018-5.079,3.138-9.384,4.354-14.184A.231.231,0,0,0,1733.129,946.257Z" transform="translate(-1669.525 -946.091)" fill="#676ea8"></path>
        <ellipse id="Ellipse_168" data-name="Ellipse 168" cx="4.974" cy="4.454" rx="4.974" ry="4.454" transform="translate(9.161 87.385) rotate(-81.385)" fill="#676ea8"></ellipse>
        <ellipse id="Ellipse_169" data-name="Ellipse 169" cx="4.974" cy="4.454" rx="4.974" ry="4.454" transform="translate(41.727 86.98) rotate(-81.385)" fill="#676ea8"></ellipse>
        <path id="Path_5623" data-name="Path 5623" d="M1706.115,956.934a.23.23,0,0,1-.022.166c-.315,2.135-.616,4.278-.91,6.417-.148,0-.3,0-.455.009q.433-3.155.9-6.309-17.338.386-34.662.775c.022-.148.045-.3.063-.455l34.666-.77q.331-2.255.685-4.5c.149-.009.3-.013.451-.018C1706.583,953.809,1706.35,955.371,1706.115,956.934Z" transform="translate(-1669.955 -947.933)" fill="#1f2144"></path>
        <path id="Path_5624" data-name="Path 5624" d="M1688.909,1060.939a.208.208,0,0,0-.065.05c-2.406.741-2.63,5.848.341,5.134C1691.821,1065.489,1691.571,1059.668,1688.909,1060.939Zm-.482,4.745c-1.984-.561-.913-3.91.643-4.295a.2.2,0,0,0,.12-.083c1.082-.468,1.432.823,1.445,1.5a4.587,4.587,0,0,1-.124,1.119C1690.3,1064.831,1689.547,1066,1688.427,1065.684Z" transform="translate(-1674.754 -980.406)" fill="#1f2144"></path>
        <path id="Path_5625" data-name="Path 5625" d="M1735.447,1060.455a.221.221,0,0,0-.065.049c-2.406.742-2.63,5.848.341,5.134C1738.359,1065,1738.109,1059.184,1735.447,1060.455Zm-.482,4.745c-1.985-.561-.913-3.91.643-4.295a.2.2,0,0,0,.121-.083c1.081-.468,1.432.823,1.445,1.5a4.6,4.6,0,0,1-.124,1.119C1736.84,1064.347,1736.085,1065.517,1734.965,1065.2Z" transform="translate(-1688.681 -980.261)" fill="#1f2144"></path>
      </g>
      <path id="Path_5626" data-name="Path 5626" d="M1480.384,816.859a14.328,14.328,0,0,0-.379-5.786,2.021,2.021,0,0,0-.761-1.062,1.1,1.1,0,0,0-.468-.153,1.2,1.2,0,0,0-.8.289c-1.018.783-1.342,2.364-1.463,3.557-.18,1.792.086,3.665-.437,5.413-.536,1.814-2.175,2.944-2.94,4.647-1.378,3.057-.748,6.565-.748,9.8a11.461,11.461,0,0,1-1.4,6.137c-1.012,1.657-2.454,3.057-3.084,4.93-1.247,3.706.59,7.538.63,11.32a2.452,2.452,0,0,1-.841-.7c-.18-.229-.5.095-.32.32a2.6,2.6,0,0,0,1.161.829c-.008.288-.022.576-.058.865s.419.283.451,0c.031-.248.045-.5.058-.743a3.345,3.345,0,0,0,1.563-.086,3.807,3.807,0,0,0,1.463-.833,6.028,6.028,0,0,0,.455-.446,10.313,10.313,0,0,0,1.14-1.58,9.827,9.827,0,0,0,1.886-5.061c-.018-2.066-.923-4.066-.464-6.137.7-3.134,3.458-5.309,4.354-8.366a8.113,8.113,0,0,0-.324-4.823,19.647,19.647,0,0,1-.756-2.72,7.019,7.019,0,0,1,.486-3.656A23.5,23.5,0,0,0,1480.384,816.859Z" transform="translate(-79.196 -40.32)" fill="#4ea5b7"></path>
      <path id="Path_5627" data-name="Path 5627" d="M1489.92,826.592c.581-3.3,2.116-6.826.432-10.046a.168.168,0,0,0-.1-.09.261.261,0,0,0-.2.009,3.034,3.034,0,0,0-.41.216c-2.5,1.513-1.868,5.876-1.611,8.267a16.793,16.793,0,0,1,0,5.867c-.509,2.013-1.99,3.2-3.237,4.737a6.746,6.746,0,0,0-1.468,4.26c-.063,2.057.378,4.21-.482,6.159-.765,1.739-2.287,2.994-3.255,4.607a11.33,11.33,0,0,0-1.491,4.2c-.252-.072-.45.283-.2.392.045.022.09.036.13.054-.022.212-.045.423-.059.635-.022.288.428.288.451,0,.009-.158.032-.315.05-.473a7.308,7.308,0,0,0,2.305.383c.212,0,.418,0,.63-.022a6.8,6.8,0,0,0,4.143-1.783,7.1,7.1,0,0,0,1.7-7.659,5.261,5.261,0,0,1-.689-2.76,5.98,5.98,0,0,1,1.5-2.692,10.743,10.743,0,0,0,2.2-3.985,9.66,9.66,0,0,0-.036-4.728A12.963,12.963,0,0,1,1489.92,826.592Z" transform="translate(-82.326 -42.29)" fill="#4ea5b7"></path>
      <path id="Path_5628" data-name="Path 5628" d="M1503.34,804.407a2,2,0,0,0-.631-.135,1.751,1.751,0,0,0-.549.05,2.533,2.533,0,0,0-1.531,1.153c-.82,1.306-.523,2.818-.235,4.237a10.842,10.842,0,0,1-.427,5.926c-.554,1.656-1.288,3.251-1.734,4.944-1.139,4.345.982,8.605.617,12.99-.4,4.827-2.6,9.3-4.71,13.58-.3.491-.567,1.252-.063,1.621a.708.708,0,0,0,.874-.13,2.111,2.111,0,0,0,.036.527,2.058,2.058,0,0,0,.675,1.2,1.079,1.079,0,0,0,.405.207,1.046,1.046,0,0,0,.6-.018,2.164,2.164,0,0,0,.964-.837,22.923,22.923,0,0,0,1.734-2.512,8.412,8.412,0,0,0,1.283-4.809c-.112-1.986-.661-3.85-.076-5.822a47.147,47.147,0,0,1,2.256-4.954,8.348,8.348,0,0,0,.712-4.444c-.257-1.931-1.1-3.728-1.364-5.66-.486-3.588,1.625-6.727,2.647-10.023C1505.474,809.388,1506.01,805.461,1503.34,804.407Z" transform="translate(-87.118 -38.647)" fill="#4ea5b7"></path>
      <path id="Path_5629" data-name="Path 5629" d="M1500.456,817.979a15.063,15.063,0,0,0-.257,6.052c.451,3.692,1.1,7.11-.134,10.73a22.151,22.151,0,0,0-1.459,5.894,24.154,24.154,0,0,1-.7,5.205,16.761,16.761,0,0,1-2.193,4.719,17.207,17.207,0,0,1-2.71,3.157c-.212.2-.531-.122-.32-.315a16.938,16.938,0,0,0,2.625-3.048,16.078,16.078,0,0,0,2.589-6.552c.27-1.765.158-3.575.513-5.326.352-1.724,1.117-3.324,1.581-5.012.959-3.476-.041-6.957-.351-10.447a14.262,14.262,0,0,1,.275-4.791,29.557,29.557,0,0,1,1.747-4.507c1.27-2.909,2.5-6.822.144-9.415a1.751,1.751,0,0,1,.549-.05c1.9,2.378,1.279,5.827.185,8.537A53.364,53.364,0,0,0,1500.456,817.979Z" transform="translate(-86.765 -38.647)" fill="#1f2144"></path>
      <path id="Path_5630" data-name="Path 5630" d="M1488.094,837.719c-.77,1.788-2.031,3.454-2.2,5.439-.163,1.91.414,3.71,0,5.628a15.583,15.583,0,0,1-4,6.957c-.613.685-1.256,1.346-1.891,1.99a.228.228,0,0,1-.378-.1c-.068-.252-.14-.5-.212-.752a.224.224,0,0,1,.432-.117l.108.374c.437-.446.878-.9,1.31-1.374,2.305-2.512,4.385-5.417,4.4-8.929.009-1.778-.473-3.445.094-5.192.549-1.693,1.617-3.165,2.215-4.845,2.3-6.479-.711-13.819,2.148-20.118a3.039,3.039,0,0,1,.41-.216.262.262,0,0,1,.2-.009C1487.415,823.054,1490.994,830.956,1488.094,837.719Z" transform="translate(-82.81 -42.29)" fill="#1f2144"></path>
      <path id="Path_5631" data-name="Path 5631" d="M1477.1,825.14c-.207,2.049.937,3.909,1.094,5.93.343,4.314-1.891,8.226-3.066,12.243-1.135,3.895-.7,7.862-.7,11.838,0,.626-.009,1.252-.041,1.878-.017.288-.468.288-.45,0,.022-.477.036-.954.036-1.432.032-3.886-.464-7.8.509-11.621,1.063-4.161,3.471-8.087,3.287-12.5-.081-2.067-1.229-3.926-1.144-5.993a11.041,11.041,0,0,1,1.422-4.435,25.376,25.376,0,0,0,2.476-5.8,14.855,14.855,0,0,0,.212-5.385,1.1,1.1,0,0,1,.468.154,16.061,16.061,0,0,1-1.747,9.32C1478.516,821.174,1477.31,823.033,1477.1,825.14Z" transform="translate(-81.157 -40.32)" fill="#1f2144"></path>
      <path id="Path_5632" data-name="Path 5632" d="M1492.87,866.023q-13.245,1.283-26.449,2.945c-.243.027-.2.346-.013.418-.036.406-.067.806-.09,1.212-.036.522-.063,1.049-.072,1.576-.018.63-.022,1.261-.009,1.9.013.5.032,1.008.063,1.517.018.271.036.541.059.811.1,1.225.229,2.675,1.422,3.345a5.18,5.18,0,0,0,2.324.428c1.175.049,2.354.054,3.53.031,2.085-.05,4.165-.2,6.237-.406,2.206-.216,4.4-.495,6.6-.783,1.621-.207,3.4-.4,4.494-1.764a8.674,8.674,0,0,0,1.378-4.1c.049-.306.1-.608.139-.91.081-.567.153-1.125.208-1.684s.108-1.139.144-1.715c.036-.545.059-1.1.072-1.666,0-.167,0-.342.009-.513C1492.943,866.1,1493.136,866,1492.87,866.023Z" transform="translate(-78.869 -57.127)" fill="#fff"></path>
      <path id="Path_5633" data-name="Path 5633" d="M1481.661,869.462q-3.978.635-7.957,1.265c-2.431.392-4.953.946-7.38.365-.036.522-.063,1.049-.072,1.576.513.032,1.085-.022,1.526-.009q1.3.034,2.593.063a34.353,34.353,0,0,0,5.489-.176c1.59-.221,3.13-.7,4.692-1.062,3.377-.788,6.8-1.338,10.234-1.864.667-.1,1.36-.176,2.049-.284.036-.545.059-1.1.072-1.666C1489.163,868.282,1485.408,868.867,1481.661,869.462Z" transform="translate(-78.876 -57.621)" fill="#1f2144"></path>
      <path id="Path_5634" data-name="Path 5634" d="M1481.288,874.315q-3.978.629-7.952,1.266c-2.341.369-4.755.9-7.1.427.013.5.031,1.008.063,1.517.392,0,.783-.026,1.1-.017.865.027,1.729.045,2.6.063a34.922,34.922,0,0,0,5.484-.171c1.59-.226,3.134-.7,4.692-1.067,3.382-.783,6.808-1.338,10.235-1.865.675-.1,1.372-.18,2.066-.288.081-.567.153-1.125.208-1.684C1488.894,873.118,1485.088,873.712,1481.288,874.315Z" transform="translate(-78.872 -59.065)" fill="#1f2144"></path>
      <path id="Path_5635" data-name="Path 5635" d="M1701.539,797.46c2.467,1.446,5.335.372,7.777-.635a18.706,18.706,0,0,0,3.812-2.282l-.732-3.019c-1.064-4.392-2-8.857-3.264-13.179-1-3.434-2.4-6.764-4.841-9.11-.208-.2-.5.15-.293.35a12.889,12.889,0,0,1,1.463,1.689,18.583,18.583,0,0,1-5.475,6.173,4.435,4.435,0,0,0-1.647,2c-.42,1.238-1.973,2.329-1.661,3.511,1.23,4.655,3.183,9.458,4.067,14.216A2.219,2.219,0,0,1,1701.539,797.46Z" transform="translate(-147.821 -28.146)" fill="#eb8773"></path>
      <path id="Path_5636" data-name="Path 5636" d="M1717.8,824.443c-.6-6.389.558-9.8-.954-16.072a9.939,9.939,0,0,0-7.036-7.2,7.9,7.9,0,0,0-1.675-.423,11.568,11.568,0,0,0-2.843.149l.6-.178c-.543.159-1.449.422-1.73.489q-.747.177-1.48.4c-.481.16-.71.233-.713.228-.15.088-.3.184-.446.282-5.054,9.305-10.106,19.221-9.628,29.774.252,5.572,2.291,10.89,3.178,16.379a57.76,57.76,0,0,1,.645,9.309c0,2.763-.4,5.59-.227,8.344.1,1.573,1,2.884,2.949,2.54a39.34,39.34,0,0,0,4.129-1.4,34,34,0,0,1,9.617-1.393,9.975,9.975,0,0,0,3.372-.224,2.01,2.01,0,0,0,1.337-1.39,23.2,23.2,0,0,0,.541-3.985A171.124,171.124,0,0,0,1717.8,824.443Z" transform="translate(-146.392 -37.584)" fill="#eb8773"></path>
      <g id="Group_2172" data-name="Group 2172" transform="translate(1479.339 725.034)">
        <path id="Path_5637" data-name="Path 5637" d="M1645.822,966.484a8.873,8.873,0,0,1-10.389-.856,8.457,8.457,0,0,1-1.889-.4c-.055,2.37-.107,4.724-.155,7.045-.465,22.282-1.112,45.161-1.253,54.453a32,32,0,0,1-7.152,4.029c-2.651,1.073-5.593,1.382-8.173,2.6-.6.285-1.628.786-1.3,1.642.285.74,1.342.718,1.978.72a85.059,85.059,0,0,0,8.923-.765c1.6-.165,3.2-.3,4.808-.307a20.972,20.972,0,0,0,3.986-.072c2.54-.511,3.318-2.763,2.953-4.893-.189-1.105-.874-2.261-.547-3.807,4.6-18.087,8.787-30.085,9.88-39.23.308-2.577-.294-14.269.189-17.085.214-1.244.619-3.066,1.166-5.312C1647.855,965.014,1646.849,965.764,1645.822,966.484Z" transform="translate(-1602.863 -811.556)" fill="#eb8773"></path>
        <path id="Path_5638" data-name="Path 5638" d="M1614.8,1058.857a3.274,3.274,0,0,0,.432,1.781c.042.081.089.158.132.234a.245.245,0,0,0,.027.144c1.141,2.08,5.136,1.432,7,1.126a46.76,46.76,0,0,1,9.475-.881c2.142.085,5.717.917,6.745-1.749.007-.014.01-.034.017-.052.894-2.414-.251-5.493-1.043-7.767a.219.219,0,0,0-.359-.086,6.088,6.088,0,0,1-2.069.527,2.908,2.908,0,0,1-2.113-1.169,2.3,2.3,0,0,0-2.131-.919,1.887,1.887,0,0,0-1.457,1.536c-.059.313-.078.6-.114.861a2.047,2.047,0,0,1-.124.477,1.441,1.441,0,0,1-.638.71.728.728,0,0,1-.071.044c-.125.069-.259.133-.393.2a15.332,15.332,0,0,1-1.506.49c-.058.016-.11.037-.168.053l-.356.119-9.246,3.012C1616.075,1057.8,1614.9,1057.881,1614.8,1058.857Z" transform="translate(-1602.666 -837.22)" fill="#f5e4d5"></path>
        <path id="Path_5639" data-name="Path 5639" d="M1615.552,1064.849a.219.219,0,0,0,.026.144c1.141,2.079,5.137,1.43,7,1.127a46.934,46.934,0,0,1,9.475-.881c2.144.085,5.717.915,6.742-1.748a.407.407,0,0,0,.02-.055c-4.143-.052-8.407-.387-12.527.21-2.013.293-4.007.743-6.034.942-1.609.155-3.225-.027-4.83.027C1615.461,1064.695,1615.507,1064.774,1615.552,1064.849Z" transform="translate(-1602.854 -841.197)" fill="#c2a891"></path>
        <g id="Group_2170" data-name="Group 2170" transform="translate(23.415 215.224)">
          <path id="Path_5640" data-name="Path 5640" d="M1635.373,1053.962a3.584,3.584,0,0,1,1.671,1.135.245.245,0,0,0,.405-.274,4.16,4.16,0,0,0-1.952-1.338A2.044,2.044,0,0,1,1635.373,1053.962Z" transform="translate(-1632.241 -1053.485)" fill="#1f2144"></path>
          <path id="Path_5641" data-name="Path 5641" d="M1633.8,1055.42a5.27,5.27,0,0,1,1,1.233c0,.006,0,.011.007.016a.5.5,0,0,1,.04.061.247.247,0,0,0,.406-.28,5.809,5.809,0,0,0-.989-1.272.715.715,0,0,1-.072.044C1634.068,1055.292,1633.934,1055.356,1633.8,1055.42Z" transform="translate(-1631.77 -1053.992)" fill="#1f2144"></path>
          <path id="Path_5642" data-name="Path 5642" d="M1630.9,1056.394a8.319,8.319,0,0,1,1.07,1.324c.172.266.578-.014.406-.279a9.571,9.571,0,0,0-.952-1.216c-.057.016-.11.037-.167.053Z" transform="translate(-1630.903 -1054.304)" fill="#1f2144"></path>
        </g>
        <path id="Path_5643" data-name="Path 5643" d="M1683.455,761.887c.02.608.046,1.241.082,1.9v.044c.1,1.666.763,10.167,2.511,15.031,1.283,3.561,2.511,3.378,3.829,3.324,2.923-.119,8.84-1.015,10.8-1.913,2.62-1.2,3.078-2.3,4.342-4.72.058-.026,2.675-11.25-1.381-17.1-1.645-2.378-2.442-6.492-5.216-7.315-3.027-.895-6.532-3.579-9.429-1.493C1683.977,753.254,1683.293,756.658,1683.455,761.887Z" transform="translate(-1623.209 -747.102)" fill="#eb8773"></path>
        <path id="Path_5644" data-name="Path 5644" d="M1686.725,773.315c.093.841-.132,1.556-.5,1.6s-.745-.608-.839-1.448.133-1.556.5-1.6S1686.631,772.474,1686.725,773.315Z" transform="translate(-1623.786 -753.984)" fill="#5c3241"></path>
        <path id="Path_5645" data-name="Path 5645" d="M1685.3,784.743c.152.57.237,1.158.427,1.693a4.493,4.493,0,0,0,3.163-1.794c.089-.174-.055-.425-.24-.377A16.542,16.542,0,0,1,1685.3,784.743Z" transform="translate(-1623.766 -757.693)" fill="#cc6c59"></path>
        <path id="Path_5646" data-name="Path 5646" d="M1683.464,767.407c.02.608.046,1.241.082,1.9v.044a11.433,11.433,0,0,1,2.381.018c.438.043,1.091.233,1.475-.116.877-.8-.513-1.622-1.194-1.776A7.414,7.414,0,0,0,1683.464,767.407Z" transform="translate(-1623.218 -752.621)" fill="#5c3241"></path>
        <path id="Path_5647" data-name="Path 5647" d="M1681.858,778.092c.048,1.343,1.428,1.808,2.671,1.505a.244.244,0,0,0,.181-.16c.292-1.206-.138-2.8-.241-4.028a5.267,5.267,0,0,0-.84-3.093.215.215,0,0,0-.142-.081c.045-.207.088-.415.133-.622.067-.306-.4-.466-.465-.158q-.386,1.765-.753,3.534A13.893,13.893,0,0,0,1681.858,778.092Z" transform="translate(-1622.736 -753.812)" fill="#eb8773"></path>
        <path id="Path_5648" data-name="Path 5648" d="M1629.572,972.127a8.805,8.805,0,0,1-8.968,0,8.679,8.679,0,0,1-1.406-1.02,8.5,8.5,0,0,1-1.882-.432c-.092,2.369-.182,4.722-.267,7.041-.818,22.272-1.827,45.137-2.115,54.426a32,32,0,0,1-7.215,3.915c-2.668,1.031-5.614,1.294-8.213,2.471-.607.275-1.641.76-1.325,1.62.273.746,1.33.739,1.966.751a84.93,84.93,0,0,0,8.934-.623c1.6-.14,3.206-.245,4.813-.231a21.054,21.054,0,0,0,3.986-.009c2.547-.47,3.362-2.71,3.03-4.846-.171-1.107-.838-2.275-.486-3.814,4.884-18.012,9.262-29.942,10.5-39.069.348-2.572-.068-14.272.46-17.079.233-1.24.667-3.056,1.249-5.293C1631.628,970.689,1630.61,971.424,1629.572,972.127Z" transform="translate(-1597.678 -813.259)" fill="#eb8773"></path>
        <path id="Path_5649" data-name="Path 5649" d="M1699.053,777.467a.847.847,0,0,0,.033-1.395c-.244-.2.1-.555.339-.355a1.339,1.339,0,0,1-.114,2.167C1699.05,778.064,1698.793,777.645,1699.053,777.467Z" transform="translate(-1627.85 -755.119)" fill="#cc6c59"></path>
        <path id="Path_5650" data-name="Path 5650" d="M1699.18,781.129a1.467,1.467,0,0,0,1.7-.3,3.866,3.866,0,0,0,.628-1.273c.117-.292.546-.053.43.237a3.027,3.027,0,0,1-1.127,1.713,2,2,0,0,1-1.865.053C1698.654,781.431,1698.892,781,1699.18,781.129Z" transform="translate(-1627.811 -756.246)" fill="#cc6c59"></path>
        <path id="Path_5651" data-name="Path 5651" d="M1597.5,1063.884a3.285,3.285,0,0,0,.4,1.787c.041.081.088.159.129.236a.233.233,0,0,0,.025.144c1.108,2.1,5.113,1.513,6.978,1.237a46.757,46.757,0,0,1,9.487-.731c2.141.12,5.7,1.007,6.771-1.642.008-.014.011-.033.019-.052.931-2.4-.163-5.5-.92-7.782a.219.219,0,0,0-.357-.091,6.092,6.092,0,0,1-2.077.493,2.906,2.906,0,0,1-2.094-1.2,2.3,2.3,0,0,0-2.116-.952,1.887,1.887,0,0,0-1.48,1.513c-.064.312-.088.6-.128.859a2.042,2.042,0,0,1-.132.475,1.442,1.442,0,0,1-.648.7.811.811,0,0,1-.072.043c-.126.067-.261.129-.4.191a15.388,15.388,0,0,1-1.514.466c-.058.015-.111.036-.168.05-.121.039-.237.074-.358.113l-9.292,2.866C1598.8,1062.842,1597.62,1062.908,1597.5,1063.884Z" transform="translate(-1597.489 -838.803)" fill="#f5e4d5"></path>
        <path id="Path_5652" data-name="Path 5652" d="M1598.215,1069.884a.211.211,0,0,0,.023.144c1.108,2.1,5.114,1.511,6.977,1.238a46.824,46.824,0,0,1,9.488-.731c2.143.118,5.7,1.005,6.769-1.642a.466.466,0,0,0,.02-.054c-4.142-.118-8.4-.521-12.529.011-2.017.262-4.018.68-6.048.846-1.611.13-3.223-.078-4.83-.049C1598.126,1069.728,1598.171,1069.808,1598.215,1069.884Z" transform="translate(-1597.667 -842.779)" fill="#c2a891"></path>
        <g id="Group_2171" data-name="Group 2171" transform="translate(11.363 218.898)">
          <path id="Path_5653" data-name="Path 5653" d="M1618.211,1059.2a3.58,3.58,0,0,1,1.652,1.161.245.245,0,0,0,.41-.268,4.16,4.16,0,0,0-1.931-1.369A2.031,2.031,0,0,1,1618.211,1059.2Z" transform="translate(-1615.053 -1058.729)" fill="#1f2144"></path>
          <path id="Path_5654" data-name="Path 5654" d="M1616.617,1060.639a5.267,5.267,0,0,1,.98,1.249c0,.006,0,.011.007.016a.516.516,0,0,1,.039.061.247.247,0,0,0,.411-.273,5.822,5.822,0,0,0-.969-1.287c-.023.016-.045.027-.072.043C1616.887,1060.516,1616.752,1060.578,1616.617,1060.639Z" transform="translate(-1614.577 -1059.231)" fill="#1f2144"></path>
          <path id="Path_5655" data-name="Path 5655" d="M1613.7,1061.567a8.291,8.291,0,0,1,1.049,1.341c.168.268.579,0,.411-.273a9.587,9.587,0,0,0-.933-1.231c-.057.015-.111.036-.168.05C1613.942,1061.494,1613.826,1061.528,1613.7,1061.567Z" transform="translate(-1613.705 -1059.529)" fill="#1f2144"></path>
        </g>
        <path id="Path_5656" data-name="Path 5656" d="M1690.359,889.673c-.009-.148-.013-.3-.022-.446q-.087-2.039-.266-4.075a.248.248,0,0,0-.243-.243,205.624,205.624,0,0,0-22.347.815c.059-.086.117-.166.176-.252.176-.261-.248-.509-.423-.247-.122.189-.256.369-.383.554-.031,0-.059,0-.09.009a.262.262,0,0,0-.193.4,16.116,16.116,0,0,1-.878,2.3c-.068.144-.135.288-.208.427-5.975,11.869-25.994,17.809-38.566,26.3a68.494,68.494,0,0,0-9.685,7.745,17.968,17.968,0,0,0-3.625,4.661,30.159,30.159,0,0,0-1.959,5.916q-3.715,13.975-6.97,28.07-3.681,15.967-6.764,32.073a.245.245,0,0,0,.3.3,22.594,22.594,0,0,1,10.33-.7c3.229.544,6.187,2.08,9.411,2.625,2.769.468,5-.284,7.438-1.531a11.461,11.461,0,0,1,5.083-1.531,35.87,35.87,0,0,1,4.9.446,23.3,23.3,0,0,0,9.375-.769,5.45,5.45,0,0,0,4.152-4.156c1.216-5.584-3.638-10.334-3.337-15.859.172-3.179,2.292-5.772,3.378-8.663a32.527,32.527,0,0,0,1.715-8.9c.459-5.818.279-11.959,2.9-17.327,5.521-11.275,19.578-7.132,28.615-12.932,5.647-3.62,6.394-10.761,7.272-16.9A99.316,99.316,0,0,0,1690.359,889.673Z" transform="translate(-1597.614 -787.803)" fill="#6b3939"></path>
        <path id="Path_5657" data-name="Path 5657" d="M1707.327,813.6a54.006,54.006,0,0,0-3.035-5.742c-1-1.875-.978-4.034-1.712-5.976l.49-.254c.281-.144.033-.568-.247-.423l-.432.222c-.059-.13-.121-.259-.188-.385-.149-.279-.573-.032-.424.247.064.12.113.245.168.369-6.578,3.42-14.113,7.909-15.126,15.953-.561,4.449,1.156,8.95,2.015,13.259.919,4.614,4.836,28.921,5.394,29.482.91.912,2.295-3.267,2.9-4.091a54.942,54.942,0,0,0,3.281-5.6c4.174-7.4,7.939-15.3,8.632-23.879A29.816,29.816,0,0,0,1707.327,813.6Z" transform="translate(-1624.189 -762.677)" fill="#eb8773"></path>
        <path id="Path_5658" data-name="Path 5658" d="M1718.453,855.386a27.472,27.472,0,0,1-.606-5.693c.08-2.006.351-4,.39-6.01A20.206,20.206,0,0,0,1717.5,838c-1.08-4.058-1.108-7.779-1.2-12-.088-3.865,1.177-10.089-.6-13.671a.248.248,0,0,0-.277-.113c-4.566,1.189-11.206.829-13.248-3.384-.692-2.134-1.71-5.714-4.5-4.595-.289.116-.162.591.131.473,1.7-.682,2.641.772,3.265,2.369.181.465.443,1.479.455,1.533a29.215,29.215,0,0,1-1.922,18.6c-1.291,2.709-4.056,5.71-7.386,4.453-2.822-1.064-4.558-4.111-5.229-6.83.058-.255-.566-.25-.5,0-1.008,4.357-1.2,5.023-1.9,9.433a15.956,15.956,0,0,0,.051,6.09c.028.123.063.242.094.363a20.576,20.576,0,0,0,2.026,5.249,13.247,13.247,0,0,1,1.1,6.9c-.12,2.438-.576,4.953-.259,7.389.187,1.434.817,3.209,2.382,3.628a3.469,3.469,0,0,0,2.179-.28,20.342,20.342,0,0,1,3.385-1.285c2.561-.537,4.919.145,7.306,1.028,1.927.713,3.94,1.481,6.032,1.224a12.111,12.111,0,0,0,3.141-.982c.554-.23,1.108-.463,1.682-.642.629-.2,1.262-.2,1.895-.345a2.018,2.018,0,0,0,1.406-1.34,2.655,2.655,0,0,0,1.282-1.446A8.743,8.743,0,0,0,1718.453,855.386Z" transform="translate(-1623.473 -763.608)" fill="#fff"></path>
        <path id="Path_5659" data-name="Path 5659" d="M1680.967,814.005a57.962,57.962,0,0,0-3.987-4.74,19.119,19.119,0,0,1,3.477-2.308c.258-.132.044-.528-.214-.4-8.541,4.382-10.929,8.063-14.039,16.535-1.042,2.839-3.3,11.891-4.2,14.777-.882,2.826-1.565,5.715-2.453,8.536a3.233,3.233,0,0,1-1.354,2.008c-.631.359-19.778,4.36-26.608,5.764a.228.228,0,0,0-.166.272c.266,1.071-.578,2.691.45,3.5a2.866,2.866,0,0,0,1.652.368c1.172.07,24.483,1.947,32.267-1.567,2.905-1.312,12.843-23.878,15.954-37.5A8.281,8.281,0,0,0,1680.967,814.005Z" transform="translate(-1607.621 -764.359)" fill="#eb8773"></path>
        <path id="Path_5660" data-name="Path 5660" d="M1631.871,873.48c-.061.033-.123.069-.184.1a14.445,14.445,0,0,0-2.452-1.419,37.893,37.893,0,0,0-2.277-3.206,8.356,8.356,0,0,0-3.211-1.728c-.5-.174-2.116-.879-2.559-.3-.158.209-.1.354-.027.577a2.066,2.066,0,0,0,.19.409,9.109,9.109,0,0,0-4.433-.318,41.332,41.332,0,0,0-4.041.921c-.564.143-1.959.206-2.332.749-.4.588.1.793.852.827-.792.163-1.724.423-1.864.982a.426.426,0,0,0,.223.548c-.484.186-.916.484-.953.947-.075.935,1.392.723,1.943.71a17,17,0,0,1,4.922.418c.38.1,4.242,1.2,5.156,1.373.963.186,1.931.341,2.888.553a15.638,15.638,0,0,0,2.9.622,4.934,4.934,0,0,0,2.5-.823q1.263-.68,2.525-1.362c.022.019.047.036.069.057.171.158.386-.077.3-.255l.024-.013C1632.252,873.735,1632.1,873.356,1631.871,873.48Z" transform="translate(-1600.874 -782.367)" fill="#eb8773"></path>
        <path id="Path_5661" data-name="Path 5661" d="M1723.582,812.684a61.225,61.225,0,0,1-1.446-6.119,26.507,26.507,0,0,1,.036-5.975c.4-3.719,2.039-8.15-.324-11.243-3.179-4.147-4.08-11.325-4.584-13.545a25.956,25.956,0,0,0-2.953-6.889c-.585-1.045-1.225-2.071-1.765-3.143a8.066,8.066,0,0,1-.734-4.876c.49-4.125-.351-8.776-3.742-11.793-3.237-2.877-7.132-2.972-11.2-2.593-4.871.45-10.131,2.291-12.216,7.11-.184.1-.153.437.1.423,2.089-.1,3.269,2.512,4,4.116.639,1.4.86,3.022,1.616,4.359,1.594,2.81,5.719.662,7.02,3.783,1.522,3.638-1.094,7.1-3.246,9.78a16.454,16.454,0,0,0-2.35,3.566c-.752,1.68-2.04,7.276-2.436,8.254-.6,1.486-1.6,2.755-2.179,4.251-.437,1.13-1.041,2.5-.739,3.728a.232.232,0,0,0,.379.1l3.552-3.039a22.149,22.149,0,0,1,3.935-3.048c1.238-.648,2.652-.865,3.918-1.464a5.154,5.154,0,0,0,1.422-.788c1,2.4,1.928,4.548,1.725,7.169-.238,3.017-1.409,6.033-.977,9.082.388,2.734,2.35,4.336,4.147,6.218a7.548,7.548,0,0,1,2.183,3.94,36.012,36.012,0,0,1,.235,5.489.226.226,0,0,0,.383.157,5.672,5.672,0,0,1,3.134-1.346c.149-.022.3-.041.455-.058.7-.077,1.414-.1,2.1-.149,2.044-.126,4.084-.235,6.124-.383a5.6,5.6,0,0,0,3.665-1.175A4.083,4.083,0,0,0,1723.582,812.684Z" transform="translate(-1623.538 -746.348)" fill="#5c3241"></path>
        <path id="Path_5662" data-name="Path 5662" d="M1704.808,838.925a14.567,14.567,0,0,1-6.6,5.729c-.264.116-.036.5.228.389a14.967,14.967,0,0,0,6.759-5.89C1705.349,838.905,1704.96,838.679,1704.808,838.925Z" transform="translate(-1627.595 -774.021)" fill="#cfb4a5"></path>
        <path id="Path_5663" data-name="Path 5663" d="M1703.934,874.115a20.156,20.156,0,0,1-4.912,4.949c-.235.166-.01.557.227.389a20.789,20.789,0,0,0,5.074-5.111C1704.489,874.1,1704.1,873.878,1703.934,874.115Z" transform="translate(-1627.844 -784.553)" fill="#cfb4a5"></path>
        <path id="Path_5664" data-name="Path 5664" d="M1703.839,768.943c-.192-.217-.51.1-.318.318a6.273,6.273,0,0,1,1.505,5.321c-.051.283.383.405.434.119A6.761,6.761,0,0,0,1703.839,768.943Z" transform="translate(-1629.202 -753.088)" fill="#1f2144"></path>
        <path id="Path_5665" data-name="Path 5665" d="M1699.206,787.216c-.45,2.645-2.881,4.4-3.837,6.86-1.026,2.642-1.145,5.648-2.935,7.956-.175.226.141.547.318.319,1.7-2.2,1.966-4.951,2.821-7.514a13.513,13.513,0,0,1,2.238-3.917,8.27,8.27,0,0,0,1.828-3.583C1699.689,787.052,1699.255,786.93,1699.206,787.216Z" transform="translate(-1625.887 -758.529)" fill="#1f2144"></path>
        <path id="Path_5666" data-name="Path 5666" d="M1697.979,799.823a10.275,10.275,0,0,1-1.432,4.166.225.225,0,0,0,.389.228,10.816,10.816,0,0,0,1.493-4.394C1698.462,799.536,1698.012,799.538,1697.979,799.823Z" transform="translate(-1627.123 -762.287)" fill="#1f2144"></path>
        <path id="Path_5667" data-name="Path 5667" d="M1734.333,820.093c-.532-1.621.063-3.249.506-4.813a8.038,8.038,0,0,0,.378-3.639,10.316,10.316,0,0,0-1.97-3.984c-.166-.235-.556-.01-.389.228a8.551,8.551,0,0,1,2,4.733,17.923,17.923,0,0,1-.936,4.26,6.044,6.044,0,0,0-.025,3.336c.416,1.273,1.3,2.308,1.5,3.661.042.286.476.165.435-.12C1735.635,822.4,1734.753,821.369,1734.333,820.093Z" transform="translate(-1637.987 -764.665)" fill="#1f2144"></path>
        <path id="Path_5668" data-name="Path 5668" d="M1733.747,828.284c-.13-.259-.518-.032-.389.227a8,8,0,0,1,.848,3.836.225.225,0,0,0,.45,0A8.513,8.513,0,0,0,1733.747,828.284Z" transform="translate(-1638.141 -770.834)" fill="#1f2144"></path>
        <path id="Path_5669" data-name="Path 5669" d="M1714.553,750.1c-.242-.161-.467.228-.227.389a4.235,4.235,0,0,1,1.9,3.665.225.225,0,0,0,.451,0A4.7,4.7,0,0,0,1714.553,750.1Z" transform="translate(-1632.423 -747.459)" fill="#1f2144"></path>
        <path id="Path_5670" data-name="Path 5670" d="M1714.752,753.288c-.163-.238-.553-.013-.389.227a4.333,4.333,0,0,1,.776,2.473.225.225,0,0,0,.451,0A4.762,4.762,0,0,0,1714.752,753.288Z" transform="translate(-1632.453 -748.395)" fill="#1f2144"></path>
        <path id="Path_5671" data-name="Path 5671" d="M1689.232,755.1c-.219-.188-.539.13-.318.318a4.34,4.34,0,0,1,1.541,3.038c.019.288.47.29.451,0A4.789,4.789,0,0,0,1689.232,755.1Z" transform="translate(-1624.826 -748.951)" fill="#1f2144"></path>
        <path id="Path_5672" data-name="Path 5672" d="M1719.411,842.873c-.153.017-.306.036-.455.058a11.6,11.6,0,0,0-1.279-6.93,17.922,17.922,0,0,0-3.436-3.985,3.84,3.84,0,0,1-1.31-3.341c.04-.288.477-.166.432.118-.36,2.328,2.242,3.629,3.512,5.187a11.708,11.708,0,0,1,1.986,3.625A11.988,11.988,0,0,1,1719.411,842.873Z" transform="translate(-1632.024 -770.936)" fill="#1f2144"></path>
        <path id="Path_5673" data-name="Path 5673" d="M1723.749,839.227c-.125-.262-.513-.034-.389.227a8.793,8.793,0,0,1,.714,5.461c-.053.284.381.4.434.12A9.313,9.313,0,0,0,1723.749,839.227Z" transform="translate(-1635.149 -774.108)" fill="#1f2144"></path>
        <path id="Path_5674" data-name="Path 5674" d="M1654.475,949.8a24.709,24.709,0,0,1-7.776,4.535c-2.448.87-5.239,1-7.449,2.441-.242.158-.016.548.227.388a12.873,12.873,0,0,1,4.311-1.531,26.7,26.7,0,0,0,4.08-1.265,25.353,25.353,0,0,0,6.925-4.25C1655.014,949.927,1654.694,949.61,1654.475,949.8Z" transform="translate(-1609.955 -807.215)" fill="#1f2144"></path>
        <path id="Path_5675" data-name="Path 5675" d="M1665.98,952.7a18.187,18.187,0,0,0-8.377,3.407c-.231.17-.006.561.227.389a17.925,17.925,0,0,1,8.27-3.362C1666.386,953.093,1666.264,952.659,1665.98,952.7Z" transform="translate(-1615.449 -808.099)" fill="#1f2144"></path>
        <path id="Path_5676" data-name="Path 5676" d="M1640.421,1011.75c-3.1,4.341-2.338,10.344-5.787,14.482-.184.221.132.541.319.318,3.488-4.185,2.734-10.2,5.856-14.573C1640.978,1011.741,1640.588,1011.516,1640.421,1011.75Z" transform="translate(-1608.588 -825.742)" fill="#1f2144"></path>
        <path id="Path_5677" data-name="Path 5677" d="M1640.985,1024.45a76,76,0,0,1-3.682,8.1c-.135.256.254.484.389.228a76.919,76.919,0,0,0,3.727-8.21C1641.524,1024.3,1641.088,1024.182,1640.985,1024.45Z" transform="translate(-1609.395 -829.527)" fill="#1f2144"></path>
        <path id="Path_5678" data-name="Path 5678" d="M1629.812,868.953a14.628,14.628,0,0,0-2.362-.715c-.283-.055-.4.379-.12.434a14.628,14.628,0,0,1,2.362.716C1629.964,869.489,1630.082,869.054,1629.812,868.953Z" transform="translate(-1606.37 -782.823)" fill="#cc6c59"></path>
        <path id="Path_5679" data-name="Path 5679" d="M1617.837,869.6a11.993,11.993,0,0,0-4.711.881c-.266.107-.149.543.12.435a11.671,11.671,0,0,1,4.591-.865A.225.225,0,0,0,1617.837,869.6Z" transform="translate(-1602.123 -783.232)" fill="#cc6c59"></path>
        <path id="Path_5680" data-name="Path 5680" d="M1616.144,872.264a14.994,14.994,0,0,0-5.277.683c-.276.087-.158.521.12.434a14.68,14.68,0,0,1,5.157-.667C1616.434,872.729,1616.434,872.278,1616.144,872.264Z" transform="translate(-1601.445 -784.024)" fill="#cc6c59"></path>
        <path id="Path_5681" data-name="Path 5681" d="M1678.455,870.258c-.19-.22-.508.1-.319.318a4.671,4.671,0,0,1,1.114,2.486c.036.283.487.286.451,0A5.22,5.22,0,0,0,1678.455,870.258Z" transform="translate(-1621.606 -783.407)" fill="#cc6c59"></path>
        <path id="Path_5682" data-name="Path 5682" d="M1699.507,834.937a22.325,22.325,0,0,1-1.1,3.534c-.109.268.327.385.434.12a22.245,22.245,0,0,0,1.1-3.534C1700,834.774,1699.571,834.654,1699.507,834.937Z" transform="translate(-1627.684 -772.811)" fill="#cc6c59"></path>
        <path id="Path_5683" data-name="Path 5683" d="M1719.217,891.212a72.325,72.325,0,0,1-11.509.513c-4.471-.158-8.925-.739-13.369-1.279.072-.14.139-.284.208-.427,4.232.518,8.47,1.062,12.729,1.242a72.119,72.119,0,0,0,11.919-.5C1719.2,890.915,1719.208,891.064,1719.217,891.212Z" transform="translate(-1626.472 -789.343)" fill="#1f2144"></path>
      </g>
      <path id="Path_5684" data-name="Path 5684" d="M1582.655,1008.209c-.09-1.139.1-2.8-1.319-3.035a5.179,5.179,0,0,0-.54-.067c-.149-.013-.3-.022-.455-.027-.748-.027-1.522.018-2.247,0q-1.789-.041-3.584-.09c-1.162-.031-2.323-.059-3.485-.09-.149,0-.3,0-.45-.009-1-.027-2-.05-3.008-.077q-3.174-.087-6.349-.166.7-3.614,1.153-7.276a30.653,30.653,0,0,0,.221-8.015,9.281,9.281,0,0,0-3.089-6.07,8.833,8.833,0,0,0-6.786-1.607,18.315,18.315,0,0,0-7.858,3.651,43.708,43.708,0,0,0-6.223,5.453,44.594,44.594,0,0,0-8.564,13.072c-1.242-.031-2.485-.068-3.728-.1l-6.935-.175-.329-.014c-.149,0-.306-.013-.463-.022a9.63,9.63,0,0,0-4.525.352c-1.338.626-1.774,2.044-2.207,3.341q-1.047,3.154-2.022,6.331-1.911,6.248-3.526,12.59-3.276,12.88-5.3,26.04c-.3,1.936-.568,3.881-.824,5.822-.095.077-.765,2.72,8.7,3.719,4.525.477,9.473-.324,14.017-.121,9.159.414,18.326.693,27.489.594a59.159,59.159,0,0,1,13.729.963,29.409,29.409,0,0,0,5.6.856c.148,0,.3,0,.45,0a9.01,9.01,0,0,0,4.5-1.126c2.864-1.639,3.764-4.957,4.2-8.006.63-4.4,1.04-8.838,1.5-13.256.936-8.861,2.012-17.79,2.341-26.7A57.037,57.037,0,0,0,1582.655,1008.209Zm-45.482-15.1c3.4-4.062,7.808-8.227,12.8-10.208a9.875,9.875,0,0,1,8.1-.009,8.21,8.21,0,0,1,4.03,6.263,27.532,27.532,0,0,1-.113,7.6q-.459,3.965-1.234,7.889-10.381-.264-20.757-.532l-9.438-.243A43.9,43.9,0,0,1,1537.173,993.107Z" transform="translate(-89.027 -91.707)" fill="#bd6a64"></path>
      <path id="Path_5685" data-name="Path 5685" d="M1764.973,873.426c-1.581-2.1-4.9-1.671-7.02-1.671-2.994,0-12.2.491-17.021.832-.189.009-.369.023-.54.036-.68.049-1.247.095-1.666.135-2.562.243-4.944.882-6.569,2.828-1.671,2-2.332,4.692-2.981,7.218-.828,3.2-7.281,40.057-9.113,55.4a.215.215,0,0,0,.144.23,2.814,2.814,0,0,0,.32.846.272.272,0,0,0,.252.144l7.1-.27c.153,0,.3-.013.45-.018l14.12-.54,4.962-.189a10.715,10.715,0,0,0,4.079-.635c2.239-1.036,2.814-3.616,3.336-5.858,3.188-13.594,4.99-27.412,8.169-41.011.765-3.273,1.549-6.547,2.1-9.883a38.639,38.639,0,0,0,.577-4.57A4.553,4.553,0,0,0,1764.973,873.426Z" transform="translate(-154.83 -58.832)" fill="#676ea8"></path>
      <path id="Path_5686" data-name="Path 5686" d="M1744.271,872.959a21.243,21.243,0,0,0-.932,2.648c-.941,3.206-1.7,6.466-2.369,9.739-2.495,12.167-4.462,24.459-6.489,36.711q-1.445,8.72-2.814,17.453c-.149,0-.3.013-.45.018q.189-1.242.387-2.485,3-19.013,6.367-37.968c1.1-6.2,2.144-12.419,3.6-18.547a47.677,47.677,0,0,1,2.157-7.533C1743.9,872.982,1744.082,872.968,1744.271,872.959Z" transform="translate(-158.169 -59.204)" fill="#1f2144"></path>
      <g id="Group_2173" data-name="Group 2173" transform="translate(1587.336 810.095)">
        <path id="Path_5687" data-name="Path 5687" d="M1779.334,925.591c-.771-3.97-2.131-7.778-2.762-11.786-1.308-8.312-.68-16.594-.594-24.953a11.688,11.688,0,0,0-.7-4.635c-.734-1.767-2.112-3.2-2.594-5.078-.783-3.059.345-6.628-1.751-9.3-2.506-3.2-6.4-1.966-9.765-1.3a10.065,10.065,0,0,1-3.587.16,8.341,8.341,0,0,0-2.711-.294,2.064,2.064,0,0,0-1.867,2.339.221.221,0,0,0,.157.157l1.5.335c1.617,5.106.174,10.526-.925,15.63-1.109,5.152-1.912,10.405.24,15.406,1.425,3.31,3.16,6.277,3.524,9.942a29.324,29.324,0,0,1-.946,9.909c-.815,3.291-1.97,6.483-2.978,9.716a33.316,33.316,0,0,0-1.966,9.552c-.018,3.673,1.9,6.947,2.508,10.519a24.629,24.629,0,0,1-.965,11.908.227.227,0,0,0,.217.285,93.6,93.6,0,0,0,13.041-.993q1.719-.254,3.427-.574a7.139,7.139,0,0,1,3.368-.177,11.907,11.907,0,0,0,2.5.678,5.58,5.58,0,0,0,2.516-.452.233.233,0,0,0,.157-.277,50.927,50.927,0,0,1,.474-25.487A28.149,28.149,0,0,0,1779.334,925.591Z" transform="translate(-1751.606 -867.736)" fill="#a5bfcf"></path>
        <path id="Path_5688" data-name="Path 5688" d="M1761.976,895.054c-.842-1.734-2.03-3.293-2.767-5.075-.937-2.261-.245-4.157.264-6.4a26.532,26.532,0,0,0,.633-6.09.225.225,0,0,0-.451,0,26.26,26.26,0,0,1-.823,6.814,8.941,8.941,0,0,0-.368,4.938,22.5,22.5,0,0,0,2.387,4.651,14.31,14.31,0,0,1,2.072,6.111c.019.288.469.29.45,0A13.216,13.216,0,0,0,1761.976,895.054Z" transform="translate(-1753.591 -870.589)" fill="#1f2144"></path>
        <path id="Path_5689" data-name="Path 5689" d="M1762.692,906.748c-.1-.267-.54-.151-.434.12a10.659,10.659,0,0,1,.668,5.2c-.034.287.417.284.451,0A10.887,10.887,0,0,0,1762.692,906.748Z" transform="translate(-1754.789 -879.365)" fill="#1f2144"></path>
        <path id="Path_5690" data-name="Path 5690" d="M1779.126,969.747c-2.952,6.56.643,13.6-.234,20.384-.037.287.414.284.45,0,.865-6.687-2.729-13.708.173-20.157C1779.633,969.712,1779.245,969.483,1779.126,969.747Z" transform="translate(-1759.486 -898.228)" fill="#1f2144"></path>
        <path id="Path_5691" data-name="Path 5691" d="M1775.815,990.1c-.066-.282-.5-.163-.434.12a11.4,11.4,0,0,1-.109,5.723.226.226,0,0,0,.435.12A11.941,11.941,0,0,0,1775.815,990.1Z" transform="translate(-1758.685 -904.306)" fill="#1f2144"></path>
      </g>
      <path id="Path_5692" data-name="Path 5692" d="M1610.513,1015.148q-1.756,6.532-3.265,13.121a353.053,353.053,0,0,0-7.321,45.8c-.153,0-.3,0-.45,0q.263-2.865.576-5.728a353.232,353.232,0,0,1,10.005-53.222C1610.212,1015.125,1610.365,1015.134,1610.513,1015.148Z" transform="translate(-118.744 -101.747)" fill="#5c3241"></path>
      <path id="Path_5693" data-name="Path 5693" d="M1551.693,879.265c-.027-.09-.058-.149-.09-.153-3.742-.405-29.822-.973-31.848-.865-3.422.176-8.6,2.013-12.058,2.756-.095.022-.189.041-.28.058-.126.023-.1.311-.1.352-.009.544-.013,1.09-.018,1.634,0,.23,23.27.644,34.7,1.18.031.184,6.853-2.472,9.663-3.607C1551.841,880.549,1551.8,879.634,1551.693,879.265Z" transform="translate(-91.16 -60.782)" fill="#de7676"></path>
      <path id="Path_5694" data-name="Path 5694" d="M1551.7,879.706q-5.065,1.107-10.091,2.377c-3.347.056-28.291-.585-33.905-.639-.095.023-.189.041-.28.058-.126.023-.1.311-.1.352-.009.544.024.183.019.728,0,.23,23.27.644,34.7,1.179a89.242,89.242,0,0,0,9.653-3.236C1551.875,880.453,1551.807,880.075,1551.7,879.706Z" transform="translate(-91.166 -61.223)" fill="#f5e4d5"></path>
      <g id="Group_2176" data-name="Group 2176" transform="translate(1469.97 744.851)">
        <path id="Path_5695" data-name="Path 5695" d="M1619.47,785.181a13.107,13.107,0,0,0,.785-7.582c-.357-1.58-1.427-3.265-3.278-2.926-2.146.392-3.343,2.707-3.882,4.6-.72,2.531-.617,5.35-2.162,7.595-1.533,2.229-3.668,3.589-3.855,6.52-.185,2.887,1.043,5.647,1.068,8.527a.179.179,0,0,0-.073.231c.021.053.046.1.07.151,0,.021,0,.042,0,.063a.2.2,0,0,0,.146.205,3.332,3.332,0,0,0,3.785,1.035,6.7,6.7,0,0,0,4.189-3.912c1.046-2.525-.132-4.829.08-7.4C1616.56,789.653,1618.505,787.553,1619.47,785.181Z" transform="translate(-1590.984 -774.628)" fill="#4ea5b7"></path>
        <path id="Path_5696" data-name="Path 5696" d="M1597.712,811.256c-.829-1.507-2.627-2.113-2.292-4.147a11.383,11.383,0,0,0,.376-3.621,7.2,7.2,0,0,0-1.34-3.3c-.826-1.113-2.152-1.784-2.857-2.986-.872-1.485-.567-3.313-.269-4.914.546-2.93.918-5.914-.167-8.785-.709-1.877-2.689-3.635-4.72-2.353-1.968,1.242-2.49,3.944-2.284,6.087a20.71,20.71,0,0,0,2.549,7.191,21.3,21.3,0,0,1,2.1,5.372c.352,1.824-.262,3.626.047,5.42.243,1.4,1.286,2.282,2.259,3.228,1.268,1.233,5.195,6.27,6.413,5.182A1.889,1.889,0,0,0,1597.712,811.256Z" transform="translate(-1584.118 -776.448)" fill="#4ea5b7"></path>
        <path id="Path_5697" data-name="Path 5697" d="M1638.566,795.065c-1.351-1.565-3.791-.837-5.193.242-1.875,1.443-2.739,3.689-3.378,5.888-.451,1.554-.71,3.731-1.876,4.935-.923.954-2.492.917-3.54,1.769-2.235,1.818-2.451,4.888-2.572,7.55a.194.194,0,0,0,.074.17,2.646,2.646,0,0,0,.828,2.754,2.314,2.314,0,0,0,2.368.132,3.828,3.828,0,0,0,.878-.566c.468-.4.727-1.063,1.2-1.424.63-.479,1.714-.144,2.458-.23a6.452,6.452,0,0,0,4.015-2.042,6.537,6.537,0,0,0,1.4-5.957,3.594,3.594,0,0,1,.239-2.865,15.206,15.206,0,0,1,1.036-1.5,18.855,18.855,0,0,0,2.14-3.637C1639.3,798.725,1639.8,796.5,1638.566,795.065Z" transform="translate(-1595.456 -780.474)" fill="#4ea5b7"></path>
        <g id="Group_2174" data-name="Group 2174" transform="translate(3.427 9.294)">
          <path id="Path_5698" data-name="Path 5698" d="M1614.678,787.924c-.011.063-.022.125-.033.188a60.4,60.4,0,0,1-1.165,6.134,17.54,17.54,0,0,1-2.859,5.664,11.2,11.2,0,0,0-2.187,5.1,19.548,19.548,0,0,0,.154,5.359c.31,2.228.777,4.432.99,6.674a42.064,42.064,0,0,1,.084,6.977c-.358,5.015-1.725,9.967-.924,15.011.046.286.479.165.434-.119-.7-4.413.3-8.788.782-13.166a45.685,45.685,0,0,0-.471-12.63c-.674-4.008-1.485-8.346.846-11.988a30,30,0,0,0,2.909-4.754,26.965,26.965,0,0,0,1.468-5.829c.145-.875.284-1.765.44-2.655Z" transform="translate(-1594.784 -787.891)" fill="#638572"></path>
          <path id="Path_5699" data-name="Path 5699" d="M1629.051,806.354a19.64,19.64,0,0,0-1.538,2.076,34.309,34.309,0,0,0-2.069,4.265,19.148,19.148,0,0,1-2.663,4.3c-.969,1.186-2.018,2.31-2.875,3.584-1.854,2.754-2.679,6.1-3.679,9.219q-1.955,6.105-3.909,12.211c-.088.277.346.4.434.12l3.437-10.737c1.08-3.373,1.918-7.058,3.792-10.1,1.708-2.771,4.2-4.867,5.61-7.85.683-1.446,1.237-2.956,2.041-4.343a18.328,18.328,0,0,1,1.851-2.567C1629.339,806.477,1629.193,806.418,1629.051,806.354Z" transform="translate(-1595.98 -793.416)" fill="#638572"></path>
          <path id="Path_5700" data-name="Path 5700" d="M1593.852,808.374a12.032,12.032,0,0,1-1.586-5.592,23.37,23.37,0,0,0-1.4-5.265,32.026,32.026,0,0,1-1.383-6.73q-.244-.117-.473-.251a32.191,32.191,0,0,0,.746,4.678c.451,1.9,1.23,3.676,1.735,5.551.475,1.76.268,3.614.823,5.36.95,2.989,3.259,5.27,5.1,7.723a20.208,20.208,0,0,1,3.849,10.478c.411,4.594-.354,9.181-1.106,13.7-.047.284.387.406.434.12,1.2-7.171,2.423-15.014-1.044-21.778C1598.037,813.429,1595.55,811.184,1593.852,808.374Z" transform="translate(-1589.008 -788.683)" fill="#638572"></path>
        </g>
        <g id="Group_2175" data-name="Group 2175" transform="translate(3.297 0.137)">
          <path id="Path_5701" data-name="Path 5701" d="M1619.012,775.022c-3.048,3.094-3.571,7.547-4.247,11.64a27.327,27.327,0,0,1-1.467,5.831,30.081,30.081,0,0,1-2.914,4.75,10.468,10.468,0,0,0-1.544,5.565,1.91,1.91,0,0,1-.117-.162.191.191,0,0,1-.149-.2v-.063c-.022-.054-.05-.1-.067-.154a.181.181,0,0,1,.072-.234c0-.347-.023-.693-.059-1.036a11.309,11.309,0,0,1,2.157-4.93,17.453,17.453,0,0,0,2.859-5.664,59.1,59.1,0,0,0,1.166-6.133c.567-3.386,1.45-6.862,3.877-9.407A2.131,2.131,0,0,1,1619.012,775.022Z" transform="translate(-1594.709 -774.824)" fill="#1f2144"></path>
          <path id="Path_5702" data-name="Path 5702" d="M1638.227,795.113c-.918,2.8-2.972,4.9-4.89,7.06a22.123,22.123,0,0,0-2.68,3.526c-.806,1.387-1.359,2.895-2.039,4.344-1.41,2.981-3.9,5.08-5.611,7.848-.117.194-.234.388-.342.581a2.032,2.032,0,0,1-.266-.446c.166-.288.342-.572.531-.851.856-1.275,1.9-2.4,2.872-3.584a19.26,19.26,0,0,0,2.666-4.3,33.924,33.924,0,0,1,2.067-4.264,23.833,23.833,0,0,1,2.373-3.048c1.914-2.166,4.017-4.269,4.917-7.087A2.906,2.906,0,0,1,1638.227,795.113Z" transform="translate(-1598.871 -780.829)" fill="#1f2144"></path>
          <path id="Path_5703" data-name="Path 5703" d="M1599.217,813.044a1.421,1.421,0,0,1-.221.6,18.23,18.23,0,0,0-1.639-2.616c-1.837-2.45-4.147-4.733-5.1-7.722-.553-1.743-.351-3.6-.824-5.359-.5-1.873-1.283-3.656-1.734-5.552a33.015,33.015,0,0,1-.671-11.3.126.126,0,0,1,.013-.059,2.018,2.018,0,0,1,.437.041v.018a32.754,32.754,0,0,0,1.329,13.6,23.357,23.357,0,0,1,1.4,5.268,12.051,12.051,0,0,0,1.589,5.592C1595.4,808.208,1597.7,810.346,1599.217,813.044Z" transform="translate(-1588.823 -776.684)" fill="#1f2144"></path>
        </g>
        <path id="Path_5704" data-name="Path 5704" d="M1613.189,848.6c-2.075.12-13.533,1.355-13.567,1.64-.224,1.9-.39,3.807-.483,5.719a16.8,16.8,0,0,0,.289,5.075c.681,2.584,3.139,3.63,5.651,3.235a9.49,9.49,0,0,0,4-1.519,7.437,7.437,0,0,0,2.272-3.342c1.328-3.3,1.628-7.077,2.064-10.583A.227.227,0,0,0,1613.189,848.6Z" transform="translate(-1588.596 -796.764)" fill="#fff"></path>
        <path id="Path_5705" data-name="Path 5705" d="M1603.556,853.727a.653.653,0,0,0-1.073.195,2.157,2.157,0,0,0-.59,1.813.616.616,0,0,0,.54.521c.336.015.559-.336.737-.57C1603.546,855.191,1604.117,854.3,1603.556,853.727Z" transform="translate(-1589.426 -798.238)" fill="#5c3241"></path>
        <path id="Path_5706" data-name="Path 5706" d="M1608.248,861.653a.653.653,0,0,0-1.073.195,2.16,2.16,0,0,0-.59,1.813.618.618,0,0,0,.54.521c.336.015.559-.336.737-.57C1608.238,863.116,1608.809,862.228,1608.248,861.653Z" transform="translate(-1590.831 -800.61)" fill="#5c3241"></path>
        <path id="Path_5707" data-name="Path 5707" d="M1614.673,853.727a.652.652,0,0,0-1.072.195,2.155,2.155,0,0,0-.59,1.813.616.616,0,0,0,.54.521c.336.015.559-.336.737-.57C1614.663,855.191,1615.234,854.3,1614.673,853.727Z" transform="translate(-1592.753 -798.238)" fill="#5c3241"></path>
      </g>
      <path id="Path_5708" data-name="Path 5708" d="M1539.794,1042.716c-1.406-.087-2.812-.176-4.217-.281-3.548-.266-7.092-.6-10.626-1.031-1.45-.175-3.265-.193-4.525-1.049-1.594-1.076-1.216-3.327-1.058-4.971a82.968,82.968,0,0,1,2.4-11.918c.874-3.526,1.837-7.033,2.868-10.515-.149,0-.305-.013-.463-.022q-1.446,4.863-2.679,9.78a102.554,102.554,0,0,0-2.423,11.32c-.315,2.355-1.017,5.791,1.667,7.007a14.348,14.348,0,0,0,4.21.819q2.869.351,5.75.622c3.018.284,6.041.508,9.065.694A1.8,1.8,0,0,1,1539.794,1042.716Z" transform="translate(-94.587 -101.091)" fill="#5c3241"></path>
      <path id="Path_5709" data-name="Path 5709" d="M1586.372,1014.85a134.357,134.357,0,0,1-5.147,19.231q-.757,2.256-1.531,4.5c-.509,1.481-.9,3.431-2.134,4.5s-3.291.964-4.823,1.036c-1.868.086-3.737.031-5.605-.036-4.722-.173-9.443-.362-14.161-.619a1.778,1.778,0,0,1-.009.453c3.841.207,7.684.364,11.526.514a61.163,61.163,0,0,0,11.045-.108c3.08-.446,3.706-3.022,4.6-5.615,2.684-7.812,5.282-15.687,6.691-23.847C1586.673,1014.858,1586.52,1014.854,1586.372,1014.85Z" transform="translate(-104.824 -101.666)" fill="#5c3241"></path>
      <path id="Path_5710" data-name="Path 5710" d="M1551.9,1051.2c-.34-.513-1.93-.559-2.441-.51-.369.036-.614.166-.639.468a39.106,39.106,0,0,0-1.1,3.9c-.19.811-.781,2.164-.314,2.979.364.637,1.172.61,1.82.67.96.09,1.111-.005,1.4-.9a35.742,35.742,0,0,0,1.017-4.064C1551.748,1053.143,1552.27,1051.762,1551.9,1051.2Zm-.7,2.426q-.2,1.029-.453,2.046a9.477,9.477,0,0,1-.627,2.218c-.284.5-1.128.516-1.678.275-.982-.432-.537-1.927-.34-2.781.3-1.3,1.2-3.985,1.17-4.1-.049-.213,2.055-.012,2.149.125C1551.736,1051.864,1551.3,1053.112,1551.2,1053.623Z" transform="translate(-103.107 -112.386)" fill="#5c3241"></path>
      <path id="Path_5711" data-name="Path 5711" d="M1540.989,1003.995a2.579,2.579,0,0,0,1.286-.68l-.359-.01a43.938,43.938,0,0,1,6.61-10.756c3.4-4.062,7.808-8.227,12.8-10.208a9.878,9.878,0,0,1,8.1-.01,8.212,8.212,0,0,1,4.03,6.264,27.5,27.5,0,0,1-.112,7.6q-.458,3.953-1.23,7.866a2.073,2.073,0,0,0,2.369.081,76.081,76.081,0,0,0,1.794-13.443c.118-4.188-1.531-8.024-5.159-10.168-3.772-2.23-8.389-1.336-12.219.292-4.326,1.839-7.949,5.012-11.17,8.435a31.845,31.845,0,0,0-4.932,6.595c-1.321,2.422-2.552,4.9-3.761,7.385l-.571-.015C1538.727,1003.9,1540.457,1004.067,1540.989,1003.995Z" transform="translate(-100.486 -90.995)" fill="#bd6a64"></path>
    </g>
  </g>
</svg>