<svg width="95.25mm" height="190.56mm" version="1.1" viewBox="0 0 95.25 190.56" xmlns="http://www.w3.org/2000/svg" xmlns:xlink="http://www.w3.org/1999/xlink">
 <defs>
  <linearGradient id="linearGradient5697" x1="-13.206" x2="-13.206" y1="26.259" y2="47.301" gradientTransform="translate(13.878 13.831)" gradientUnits="userSpaceOnUse" xlink:href="#linearGradient4655"/>
  <linearGradient id="linearGradient4655">
   <stop stop-color="#5e6c62" stop-opacity=".27451" offset="0"/>
   <stop stop-color="#5e6c62" offset=".05"/>
   <stop stop-color="#5e6c62" offset=".95"/>
   <stop stop-color="#5e6c62" stop-opacity=".27451" offset="1"/>
  </linearGradient>
  <clipPath id="clipPath5738-4-4">
   <path d="m0.45114 39.688c-0.24986 0-0.45113 0.20076-0.45113 0.45062v20.945c0 0.24986 0.20127 0.45114 0.45113 0.45114h3.4742c0.24986 0 0.45114-0.20127 0.45114-0.45114v-20.945c0-0.24986-0.20127-0.45062-0.45114-0.45062z" color="#000000"/>
  </clipPath>
  <filter id="filter5465-7-2-6" x="-.32506" y="-.0081428" width="1.6501" height="1.0163" color-interpolation-filters="sRGB">
   <feGaussianBlur stdDeviation="0.07139097"/>
  </filter>
  <linearGradient id="linearGradient5475" x1="-13.206" x2="-13.206" y1="26.259" y2="32.871" gradientUnits="userSpaceOnUse" xlink:href="#linearGradient4655"/>
  <clipPath id="clipPath5401-9-6">
   <rect x="-13.878" y="25.857" width="4.3765" height="7.4167" ry=".45102" color="#000000"/>
  </clipPath>
  <filter id="filter5465-3" x="-.32506" y="-.025913" width="1.6501" height="1.0518" color-interpolation-filters="sRGB">
   <feGaussianBlur stdDeviation="0.07139097"/>
  </filter>
  <linearGradient id="linearGradient27884" x1="-13.206" x2="-13.206" y1="26.259" y2="39.269" gradientTransform="translate(13.878 13.831)" gradientUnits="userSpaceOnUse" xlink:href="#linearGradient4655"/>
  <clipPath id="clipPath5589-3-4">
   <path d="m0.45114 39.688c-0.24986 0-0.45114 0.20076-0.45114 0.45062v12.913c0 0.24986 0.20127 0.45114 0.45114 0.45114h3.4742c0.24986 0 0.45114-0.20127 0.45114-0.45114v-12.913c0-0.24986-0.20127-0.45062-0.45114-0.45062z" color="#000000"/>
  </clipPath>
  <filter id="filter5465-7-25" x="-.32506" y="-.01317" width="1.6501" height="1.0263" color-interpolation-filters="sRGB">
   <feGaussianBlur stdDeviation="0.07139097"/>
  </filter>
  <clipPath id="clipPath5589-7-8-7">
   <path d="m0.45114 39.688c-0.24986 0-0.45114 0.20076-0.45114 0.45062v12.913c0 0.24986 0.20127 0.45114 0.45114 0.45114h3.4742c0.24986 0 0.45114-0.20127 0.45114-0.45114v-12.913c0-0.24986-0.20127-0.45062-0.45114-0.45062z" color="#000000"/>
  </clipPath>
  <filter id="filter5465-7-8-4" x="-.32506" y="-.01317" width="1.6501" height="1.0263" color-interpolation-filters="sRGB">
   <feGaussianBlur stdDeviation="0.07139097"/>
  </filter>
  <clipPath id="clipPath4960-5-0">
   <path d="m56.734 2.0137c-29.679 0-53.572 23.894-53.572 53.572v610.44c0 29.679 23.894 53.572 53.572 53.572h246.53c29.679 0 53.572-23.894 53.572-53.572v-610.44c0-29.679-23.894-53.572-53.572-53.572zm-1.4238 3.9785h249.38c26.582 0 47.982 21.398 47.982 47.98v614.24c0 26.582-21.4 47.982-47.982 47.982h-249.38c-26.582 0-47.982-21.4-47.982-47.982v-614.24c0-26.582 21.4-47.98 47.982-47.98z" color="#000000" fill="#ebebeb"/>
  </clipPath>
  <filter id="filter4996-8" x="-.0017458" y="-.0009142" width="1.0035" height="1.0018" color-interpolation-filters="sRGB">
   <feGaussianBlur stdDeviation="0.26620632"/>
  </filter>
  <linearGradient id="linearGradient5226" x1="340.65" x2="349.57" y1="361.12" y2="361.12" gradientTransform="matrix(.26458 0 0 .26458 55.628 -27.868)" gradientUnits="userSpaceOnUse" xlink:href="#linearGradient5220"/>
  <linearGradient id="linearGradient5220">
   <stop stop-color="#404040" offset="0"/>
   <stop stop-color="#838383" offset=".6"/>
   <stop stop-color="#a7a7a7" offset="1"/>
  </linearGradient>
  <linearGradient id="linearGradient5226-6" x1="340.65" x2="349.57" y1="361.12" y2="361.12" gradientTransform="matrix(-.26458 0 0 .26458 151.1 -27.868)" gradientUnits="userSpaceOnUse" xlink:href="#linearGradient5220"/>
  <pattern id="pattern2056" patternTransform="matrix(.26458 0 0 .26458 -20.705 -33.649)" xlink:href="#pattern3129-3"/>
  <pattern id="pattern3129-3" patternTransform="matrix(.26458 0 0 .26458 1237.9 5897.5)" xlink:href="#pattern2874-7-1"/>
  <pattern id="pattern2874-7-1" width="1.171848" height="1.1718804" patternTransform="matrix(.26458 0 0 .26458 -76.446 -5.7813)" patternUnits="userSpaceOnUse">
   <g transform="matrix(3.7795 0 0 3.7795 288.93 -26.721)">
    <rect x="-76.446" y="7.0699" width=".15503" height=".15503" fill="#212121"/>
    <rect x="-76.291" y="7.225" width=".15503" height=".15503" fill="#212121"/>
    <rect x="-76.291" y="7.0699" width=".15503" height=".15503" fill="#060606"/>
    <rect x="-76.446" y="7.225" width=".15503" height=".15503" fill="#060606"/>
   </g>
  </pattern>
  <filter id="filter5343-8" x="-.19229" y="-.082467" width="1.3846" height="1.1649" color-interpolation-filters="sRGB">
   <feGaussianBlur stdDeviation="0.030983682"/>
  </filter>
  <filter id="filter5347-2" x="-.10878" y="-.082313" width="1.2176" height="1.1646" color-interpolation-filters="sRGB">
   <feGaussianBlur stdDeviation="0.030983682"/>
  </filter>
  <linearGradient id="linearGradient5832" x1="8.3153" x2="86.935" y1="8.4801" y2="8.4801" gradientTransform="translate(55.808 -30.474)" gradientUnits="userSpaceOnUse" xlink:href="#linearGradient5830"/>
  <linearGradient id="linearGradient5830">
   <stop stop-color="#4f4f4f" stop-opacity=".13084" offset="0"/>
   <stop stop-color="#4f4f4f" offset=".07"/>
   <stop stop-color="#4f4f4f" stop-opacity=".95327" offset=".937"/>
   <stop stop-color="#4f4f4f" stop-opacity="0" offset="1"/>
  </linearGradient>
  <linearGradient id="linearGradient5832-3" x1="8.3153" x2="86.935" y1="8.4801" y2="8.4801" gradientTransform="matrix(1 0 0 -1 55.808 165.7)" gradientUnits="userSpaceOnUse" xlink:href="#linearGradient5830"/>
  <mask id="mask28081" maskUnits="userSpaceOnUse">
   <g transform="translate(-1314.4 -5903.3)">
    <path d="m1357.1 5910.6c-0.3991 0-0.7203 0.3212-0.7203 0.7204 0 0.3991 0.3212 0.7203 0.7203 0.7203h9.9219c0.3992 0 0.7204-0.3212 0.7204-0.7203 0-0.3992-0.3212-0.7204-0.7204-0.7204z" color="#000000" fill="none" stroke="#fff" stroke-linecap="round" stroke-width=".052917"/>
   </g>
  </mask>
  <filter id="filter1214-1" x="-2.5666" y="-2.5666" width="6.1332" height="6.1332" color-interpolation-filters="sRGB">
   <feGaussianBlur stdDeviation="0.49125426"/>
  </filter>
  <mask id="mask28075" maskUnits="userSpaceOnUse">
   <g transform="translate(-1314.4 -5903.3)">
    <path d="m1357.1 5910.6c-0.3991 0-0.7203 0.3212-0.7203 0.7204 0 0.3991 0.3212 0.7203 0.7203 0.7203h9.9219c0.3992 0 0.7204-0.3212 0.7204-0.7203 0-0.3992-0.3212-0.7204-0.7204-0.7204z" color="#000000" fill="none" stroke="#fff" stroke-linecap="round" stroke-width=".052917"/>
   </g>
  </mask>
 </defs>
 <g transform="translate(-55.741 27.669)">
  <path d="m70.224-27.669c-7.7366 0-13.964 6.228-13.964 13.964v162.63c0 7.7366 6.2279 13.965 13.964 13.965h28.301l0.5783-0.8196h8.525l0.5788 0.8196h28.301c7.7366 0 13.964-6.2284 13.964-13.965v-162.63c0-7.7365-6.2279-13.964-13.964-13.964zm0.2749 5.6751h8.3008a1.4176 1.4176 0 0 1 1.4175 1.4175v0.6527c0 2.5543 2.0558 4.6105 4.61 4.6105h37.077c2.5542 0 4.6101-2.0562 4.6101-4.6105v-0.6527a1.4176 1.4176 0 0 1 1.4175-1.4175h8.3008c4.7012 0 8.4858 3.7847 8.4858 8.4858v162.24c0 4.7009-3.7846 8.4858-8.4858 8.4858h-65.734c-4.7012 0-8.4858-3.7849-8.4858-8.4858v-162.24c0-4.7011 3.7846-8.4858 8.4858-8.4858z"/>
  <g fill="#4e5c52">
   <path d="m56.192 29.193c-0.2498 0-0.4511 0.2008-0.4511 0.4507v12.913c0 0.2498 0.2013 0.4511 0.4511 0.4511h3.4742c0.2499 0 0.4512-0.2013 0.4512-0.4511v-12.913c0-0.2499-0.2013-0.4507-0.4512-0.4507z" color="#000000"/>
   <path d="m56.192 11.82c-0.2498 0-0.4511 0.2008-0.4511 0.4506v12.913c0 0.2499 0.2013 0.4512 0.4511 0.4512h3.4742c0.2499 0 0.4512-0.2013 0.4512-0.4512v-12.913c0-0.2498-0.2013-0.4506-0.4512-0.4506z" color="#000000"/>
   <rect x="55.741" y="-2.0111" width="4.3765" height="7.4167" ry=".45102" color="#000000"/>
   <path d="m150.54 16.339c0.2498 0 0.4511 0.2007 0.4511 0.4506v20.945c0 0.2499-0.2013 0.4511-0.4511 0.4511h-3.4742c-0.2499 0-0.4512-0.2012-0.4512-0.4511v-20.945c0-0.2499 0.2013-0.4506 0.4512-0.4506z" color="#000000"/>
  </g>
  <path d="m70.529-26.78c-7.3813 0-13.324 5.9425-13.324 13.324v162.02c0 7.3813 5.9424 13.324 13.324 13.324h65.998c7.3813 0 13.324-5.9424 13.324-13.324v-162.02c0-7.3813-5.9424-13.324-13.324-13.324zm-0.03 4.7858h8.3008a1.4176 1.4176 0 0 1 1.4175 1.4175v0.6527c0 2.5543 2.0558 4.6105 4.61 4.6105h37.077c2.5542 0 4.6101-2.0562 4.6101-4.6105v-0.6527a1.4176 1.4176 0 0 1 1.4175-1.4175h8.3008c4.7012 0 8.4858 3.7847 8.4858 8.4858v162.24c0 4.7009-3.7846 8.4858-8.4858 8.4858h-65.734c-4.7012 0-8.4858-3.7849-8.4858-8.4858v-162.24c0-4.7011 3.7846-8.4858 8.4858-8.4858z"/>
  <path transform="matrix(-1 0 0 1 150.99 -23.349)" d="m0.54703 40.09c-0.22275 0-0.40204 0.17929-0.40204 0.40204v20.238c0 0.22275 0.17929 0.40204 0.40204 0.40204h0.12506v-21.042z" clip-path="url(#clipPath5738-4-4)" color="#000000" fill="url(#linearGradient5697)" filter="url(#filter5465-7-2-6)"/>
  <path transform="translate(69.619 -27.868)" d="m-13.331 26.259c-0.22275 0-0.40204 0.17929-0.40204 0.40204v5.8079c0 0.22275 0.17929 0.40204 0.40204 0.40204h0.12506v-6.612z" clip-path="url(#clipPath5401-9-6)" color="#000000" fill="url(#linearGradient5475)" filter="url(#filter5465-3)"/>
  <path transform="translate(55.741 -27.868)" d="m0.54703 40.09c-0.22275 0-0.40204 0.17929-0.40204 0.40204v12.206c0 0.22275 0.17929 0.40204 0.40204 0.40204h0.12506v-13.01z" clip-path="url(#clipPath5589-3-4)" color="#000000" fill="url(#linearGradient27884)" filter="url(#filter5465-7-25)"/>
  <path transform="translate(55.741 -10.495)" d="m0.54703 40.09c-0.22275 0-0.40204 0.17929-0.40204 0.40204v12.206c0 0.22275 0.17929 0.40204 0.40204 0.40204h0.12506v-13.01z" clip-path="url(#clipPath5589-7-8-7)" color="#000000" fill="url(#linearGradient27884)" filter="url(#filter5465-7-8-4)"/>
  <path d="m56.578 143.33h1.1022v-151.37h-1.1022z" color="#000000" fill="#57645b"/>
  <path d="m150.15 144.64h-1.1023v4.3594c0 7.0332-5.6621 12.695-12.695 12.695h-65.982c-7.0332 0-12.695-5.6622-12.695-12.695v-4.3594h-1.1022v3.7827c0 7.8525 6.3218 14.174 14.174 14.174h65.228c7.8525 0 14.174-6.3219 14.174-14.174z" color="#000000" fill="#57645b"/>
  <path d="m131.01-27.268v1.0527h1.3028v-1.0527zm-74.43 17.924v1.3028h1.1023v-1.3028zm92.474 0v1.3028h1.1023v-1.3028zm-92.474 152.68v1.3033h1.1023v-1.3033zm92.474 0v1.3033h1.1023v-1.3033zm-74.63 18.358v0.9022h1.3028v-0.9022z" color="#000000" fill="#424f46" stroke-width=".26458"/>
  <path d="m150.15-8.0415h-1.1023v151.37h1.1023z" color="#000000" fill="#57645b"/>
  <path d="m70.752-27.268c-7.8525 0-14.174 6.3219-14.174 14.174v3.7496h1.1022v-4.1765c0-7.0332 5.6622-12.695 12.695-12.695h65.982c7.0332 0 12.695 5.6616 12.695 12.695v4.1765h1.1023v-3.7496c0-7.8525-6.3219-14.174-14.174-14.174z" color="#000000" fill="#57645b"/>
  <path transform="matrix(.26458 0 0 .26458 55.741 -27.868)" d="m37.924 11.58c-6.5868-0.16785-19.141 1.8259-32.031 16.312-18.75 21.071-1.9648 8.3926-1.9648 8.3926s11.518-17.856 27.59-20.178c16.071-2.3214 11.16-3.9297 11.16-3.9297s-1.7599-0.52136-4.7539-0.59766zm284.15 0c-2.994 0.0763-4.7539 0.59766-4.7539 0.59766s-4.9113 1.6083 11.16 3.9297 27.59 20.178 27.59 20.178 16.785 12.679-1.9648-8.3926c-12.891-14.487-25.444-16.48-32.031-16.312zm-324.52 670.36c-1.4383-0.17232-0.45703 2.2888 8.332 12.166 18.75 21.071 36.785 15.715 36.785 15.715s4.9113-1.6083-11.16-3.9297c-16.071-2.3215-27.59-20.178-27.59-20.178s-4.7371-3.5781-6.3672-3.7734zm364.88 0c-1.63 0.19529-6.3672 3.7734-6.3672 3.7734s-11.518 17.856-27.59 20.178c-16.071 2.3214-11.16 3.9297-11.16 3.9297s18.035 5.3566 36.785-15.715c8.7891-9.8772 9.7703-12.338 8.332-12.166z" clip-path="url(#clipPath4960-5-0)" fill="#3d4a41" fill-rule="evenodd" filter="url(#filter4996-8)"/>
  <path d="m141.77-23.803c-0.3108-0.031-0.1641 0.279 0.5333 0.925 2.3008 2.1312 3.7295 5.216 3.7295 8.6496v163.82c0 3.4336-1.4287 6.5184-3.7295 8.6496-0.6974 0.646-0.8441 0.9558-0.5333 0.925 0.1864-0.018 0.5376-0.1595 1.033-0.4237 3.3627-1.794 5.3154-5.6644 5.3154-9.7751v-162.57c0-4.1107-1.9527-7.9811-5.3154-9.7751-0.4954-0.2642-0.8466-0.4053-1.033-0.4237z" color="#000000" fill="url(#linearGradient5226)" stroke-width=".26458"/>
  <path d="m64.961-23.803c0.3108-0.031 0.1641 0.279-0.5333 0.925-2.3009 2.1312-3.7295 5.216-3.7295 8.6496v163.82c0 3.4336 1.4286 6.5184 3.7295 8.6496 0.6974 0.646 0.8441 0.9558 0.5333 0.925-0.1865-0.018-0.5377-0.1595-1.033-0.4237-3.3627-1.794-5.3154-5.6644-5.3154-9.7752v-162.57c0-4.1107 1.9527-7.9811 5.3154-9.7751 0.4953-0.2642 0.8465-0.4053 1.033-0.4237z" color="#000000" fill="url(#linearGradient5226-6)"/>
  <rect x="97.767" y="-20.606" width="11.363" height="1.441" ry=".72052" color="#000000" fill="url(#pattern2056)"/>
  <circle cx="113.66" cy="-19.978" r="1.3447" color="#000000" fill="#161616"/>
  <circle cx="113.66" cy="-19.978" r="1.0774" color="#000000" fill="#0a0d13"/>
  <circle cx="113.66" cy="-19.978" r=".82092" color="#000000" fill="#091427"/>
  <path d="m113.09-20.527c-0.097 0.01-0.2357 0.1588-0.246 0.4509-0.01 0.292 0.1179 0.4508 0.1896 0.4508 0.072 0 0.3689-0.4252 0.056-0.9017z" fill="#235a91" fill-opacity=".55608" fill-rule="evenodd" filter="url(#filter5343-8)"/>
  <path d="m113.79-20.63c-0.1536 0.047-0.1831 0.2953-0.1772 0.4371 0.01 0.1417 0.2067 0.5138 0.4488 0.4311 0.2422-0.083 0.2835-0.3898 0.1831-0.5965s-0.2835-0.3543-0.4547-0.2717z" fill="#235a91" fill-opacity=".55608" fill-rule="evenodd" filter="url(#filter5347-2)"/>
  <path d="m70.365-25.29c-2.2986 0-4.4369 0.6574-6.242 1.7921v1.5048c1.7204-1.1284 3.78-1.7854 6.0001-1.7854h66.619c2.2201 0 4.2798 0.657 6.0002 1.7854v-1.5048c-1.8052-1.1347-3.9435-1.7921-6.242-1.7921h-39.966z" color="#000000" fill="url(#linearGradient5832)"/>
  <path d="m70.365 160.52c-2.2986 0-4.4369-0.6574-6.242-1.7922v-1.5048c1.7204 1.1285 3.78 1.7854 6.0001 1.7854h66.619c2.2201 0 4.2798-0.6569 6.0002-1.7854v1.5048c-1.8052 1.1348-3.9435 1.7922-6.242 1.7922h-39.966z" color="#000000" fill="url(#linearGradient5832-3)"/>
  <g fill="#fff" fill-opacity=".065421">
   <circle cx="84.832" cy="-19.978" r=".89769"/>
   <circle cx="120.75" cy="-19.978" r="1.6064"/>
   <circle cx="92.381" cy="-19.978" r="1.3229"/>
  </g>
  <path d="m98.488-20.606c-0.3991 0-0.7203 0.3212-0.7203 0.7204 0 0.3991 0.3212 0.7203 0.7203 0.7203h9.9219c0.3992 0 0.7204-0.3212 0.7204-0.7203 0-0.3992-0.3212-0.7204-0.7204-0.7204z" color="#000000" fill="none" stroke="#292929" stroke-linecap="round" stroke-width=".052917"/>
  <path transform="translate(55.741 -27.868)" d="m42.256 7.9825a0.22968 0.22968 0 0 1-0.22968 0.22968 0.22968 0.22968 0 0 1-0.22968-0.22968 0.22968 0.22968 0 0 1 0.22968-0.22968 0.22968 0.22968 0 0 1 0.22968 0.22968z" fill="#fff" filter="url(#filter1214-1)" mask="url(#mask28081)"/>
  <path transform="translate(55.741 -27.868)" d="m53.619 7.9825a0.22968 0.22968 0 0 1-0.22968 0.22968 0.22968 0.22968 0 0 1-0.22968-0.22968 0.22968 0.22968 0 0 1 0.22968-0.22968 0.22968 0.22968 0 0 1 0.22968 0.22968z" fill="#fff" filter="url(#filter1214-1)" mask="url(#mask28075)"/>
 </g>
</svg>
